<?xml version="1.0" encoding="UTF-8" standalone="no"?>
<svg
   xmlns:dc="http://purl.org/dc/elements/1.1/"
   xmlns:cc="http://creativecommons.org/ns#"
   xmlns:rdf="http://www.w3.org/1999/02/22-rdf-syntax-ns#"
   xmlns:svg="http://www.w3.org/2000/svg"
   xmlns="http://www.w3.org/2000/svg"
   xmlns:sodipodi="http://sodipodi.sourceforge.net/DTD/sodipodi-0.dtd"
   xmlns:inkscape="http://www.inkscape.org/namespaces/inkscape"
   sodipodi:docname="hand11.svg"
   inkscape:version="1.0 (4035a4fb49, 2020-05-01)"
   id="svg4360"
   version="1.1"
   viewBox="0 0 43.1871 66.63964"
   height="66.639641mm"
   width="43.187099mm">
  <defs
     id="defs4354" />
  <sodipodi:namedview
     inkscape:window-maximized="1"
     inkscape:window-y="-8"
     inkscape:window-x="-8"
     inkscape:window-height="705"
     inkscape:window-width="1366"
     showgrid="false"
     inkscape:document-rotation="0"
     inkscape:current-layer="layer1"
     inkscape:document-units="mm"
     inkscape:cy="153.24856"
     inkscape:cx="-79.281664"
     inkscape:zoom="1.4"
     inkscape:pageshadow="2"
     inkscape:pageopacity="0.0"
     borderopacity="1.0"
     bordercolor="#666666"
     pagecolor="#ffffff"
     id="base" />
  <metadata
     id="metadata4357">
    <rdf:RDF>
      <cc:Work
         rdf:about="">
        <dc:format>image/svg+xml</dc:format>
        <dc:type
           rdf:resource="http://purl.org/dc/dcmitype/StillImage" />
        <dc:title />
      </cc:Work>
    </rdf:RDF>
  </metadata>
  <g
     transform="translate(-105.88174,-69.886126)"
     id="layer1"
     inkscape:groupmode="layer"
     inkscape:label="Layer 1">
    <path
       sodipodi:nodetypes="cc"
       id="path4262"
       d="m 117.52915,136.47422 c -1.38012,-13.93203 3.19205,-21.56233 3.24885,-21.66016"
       style="fill:none;stroke:#000000;stroke-width:2.2;stroke-linecap:round;stroke-linejoin:miter;stroke-miterlimit:4;stroke-dasharray:none;stroke-opacity:1" />
    <path
       id="path4264"
       d="M 127.19161,121.35334 C 120.778,114.81406 120.778,114.81406 120.778,114.81406"
       style="fill:none;stroke:#000000;stroke-width:2.2;stroke-linecap:round;stroke-linejoin:miter;stroke-miterlimit:4;stroke-dasharray:none;stroke-opacity:1" />
    <path
       sodipodi:nodetypes="cc"
       id="path4266"
       d="m 120.778,114.81406 c -2.39872,-6.50221 -0.48626,-13.99239 -8.8943,-19.117519"
       style="fill:none;stroke:#000000;stroke-width:2.2;stroke-linecap:round;stroke-linejoin:miter;stroke-miterlimit:4;stroke-dasharray:none;stroke-opacity:1" />
    <path
       sodipodi:nodetypes="cc"
       id="path4268"
       d="m 111.8837,95.696541 c -0.20462,-9.540853 7.65917,-6.883221 7.65919,-6.883228"
       style="fill:none;stroke:#000000;stroke-width:2.2;stroke-linecap:round;stroke-linejoin:miter;stroke-miterlimit:4;stroke-dasharray:none;stroke-opacity:1" />
    <path
       sodipodi:nodetypes="cc"
       id="path4270"
       d="m 119.54289,88.813313 c 6.96236,6.627784 12.05196,13.698177 15.44907,21.168577"
       style="fill:none;stroke:#000000;stroke-width:2.2;stroke-linecap:round;stroke-linejoin:miter;stroke-miterlimit:4;stroke-dasharray:none;stroke-opacity:1" />
    <path
       id="path4272"
       d="m 108.09877,83.081094 c 18.89784,8.47998 18.89784,8.47998 18.89784,8.47998"
       style="fill:none;stroke:#000000;stroke-width:2.2;stroke-linecap:round;stroke-linejoin:miter;stroke-miterlimit:4;stroke-dasharray:none;stroke-opacity:1" />
    <path
       sodipodi:nodetypes="cc"
       id="path4274"
       d="m 126.99661,91.561074 c 2.58289,5.03552 6.20136,7.677306 9.68096,10.640126"
       style="fill:none;stroke:#000000;stroke-width:2.2;stroke-linecap:round;stroke-linejoin:miter;stroke-miterlimit:4;stroke-dasharray:none;stroke-opacity:1" />
    <path
       sodipodi:nodetypes="cc"
       id="path4276"
       d="m 108.09877,83.081094 c -4.53692,-6.814589 2.78508,-7.841415 2.79256,-7.842305"
       style="fill:none;stroke:#000000;stroke-width:2.2;stroke-linecap:butt;stroke-linejoin:miter;stroke-miterlimit:4;stroke-dasharray:none;stroke-opacity:1" />
    <path
       id="path4278"
       d="m 110.89133,75.238785 c 19.47841,7.415451 19.47841,7.415451 19.47841,7.415451"
       style="fill:none;stroke:#000000;stroke-width:2.2;stroke-linecap:butt;stroke-linejoin:miter;stroke-miterlimit:4;stroke-dasharray:none;stroke-opacity:1" />
    <path
       id="path4280"
       d="m 130.36974,82.654236 c 10.40402,9.523737 10.20672,9.424894 10.20672,9.424894"
       style="fill:none;stroke:#000000;stroke-width:2.2;stroke-linecap:round;stroke-linejoin:miter;stroke-miterlimit:4;stroke-dasharray:none;stroke-opacity:1" />
    <path
       sodipodi:nodetypes="cc"
       id="path4282"
       d="m 110.89133,75.238785 c 1.49472,-9.642529 21.22959,-1.071693 21.22959,-1.071693"
       style="fill:none;stroke:#000000;stroke-width:2.2;stroke-linecap:round;stroke-linejoin:miter;stroke-miterlimit:4;stroke-dasharray:none;stroke-opacity:1" />
    <path
       id="path4284"
       d="M 132.12092,74.167092 Z"
       style="fill:none;stroke:#000000;stroke-width:2.2;stroke-linecap:butt;stroke-linejoin:miter;stroke-miterlimit:4;stroke-dasharray:none;stroke-opacity:1" />
    <path
       id="path4286"
       d="m 132.12092,74.167092 c 8.16735,6.924867 8.16735,6.924867 8.16735,6.924867"
       style="fill:none;stroke:#000000;stroke-width:2.2;stroke-linecap:round;stroke-linejoin:miter;stroke-miterlimit:4;stroke-dasharray:none;stroke-opacity:1" />
    <path
       id="path4288"
       d="M 140.28827,81.091959 Z"
       style="fill:none;stroke:#000000;stroke-width:2.2;stroke-linecap:butt;stroke-linejoin:miter;stroke-miterlimit:4;stroke-dasharray:none;stroke-opacity:1" />
    <path
       sodipodi:nodetypes="cc"
       id="path4290"
       d="m 140.28827,81.091959 c 3.13228,6.026892 5.80015,10.174126 5.80092,10.175228"
       style="fill:none;stroke:#000000;stroke-width:2.2;stroke-linecap:butt;stroke-linejoin:miter;stroke-miterlimit:4;stroke-dasharray:none;stroke-opacity:1" />
    <path
       id="path4292"
       d="m 140.28827,81.091959 c 1.43668,3.060666 1.43668,3.060666 1.43668,3.060666"
       style="fill:none;stroke:#000000;stroke-width:2.2;stroke-linecap:butt;stroke-linejoin:miter;stroke-miterlimit:4;stroke-dasharray:none;stroke-opacity:1" />
    <path
       sodipodi:nodetypes="cc"
       id="path4294"
       d="m 141.72495,84.152625 c 4.01511,1.439632 4.89253,4.021267 4.36424,7.114562"
       style="fill:none;stroke:#000000;stroke-width:2.2;stroke-linecap:round;stroke-linejoin:miter;stroke-miterlimit:4;stroke-dasharray:none;stroke-opacity:1" />
    <path
       sodipodi:nodetypes="ccc"
       id="path4296"
       d="m 146.08919,91.267187 c 3.24922,4.09687 2.39223,7.290954 1.03327,10.374673 v 0"
       style="fill:none;stroke:#000000;stroke-width:2.2;stroke-linecap:round;stroke-linejoin:miter;stroke-miterlimit:4;stroke-dasharray:none;stroke-opacity:1" />
    <path
       id="path4298"
       d="m 147.12246,101.64186 -7.11754,22.55631 v 0"
       style="fill:none;stroke:#000000;stroke-width:2.2;stroke-linecap:round;stroke-linejoin:miter;stroke-miterlimit:4;stroke-dasharray:none;stroke-opacity:1" />
    <path
       id="path4300"
       d="m 142.01317,117.74723 c 2.32536,9.49183 2.26706,9.33164 2.26706,9.33164"
       style="fill:none;stroke:#000000;stroke-width:2.2;stroke-linecap:round;stroke-linejoin:miter;stroke-miterlimit:4;stroke-dasharray:none;stroke-opacity:1" />
    <path
       sodipodi:nodetypes="cc"
       id="path4302"
       d="m 114.09926,95.254028 c 5.07018,2.62611 6.06094,1.321056 4.10669,-2.822016"
       style="fill:none;stroke:#000000;stroke-width:2.2;stroke-linecap:butt;stroke-linejoin:miter;stroke-miterlimit:4;stroke-dasharray:none;stroke-opacity:1" />
    <path
       id="path4304"
       d="m 114.09926,95.254028 c 4.10669,-2.822016 4.10669,-2.822016 4.10669,-2.822016"
       style="fill:none;stroke:#000000;stroke-width:2.2;stroke-linecap:round;stroke-linejoin:miter;stroke-miterlimit:4;stroke-dasharray:none;stroke-opacity:1" />
    <path
       sodipodi:nodetypes="cccc"
       id="path4306"
       d="m 109.41294,77.049872 c 9.31542,3.663289 -1.30613,6.967633 -1.1692,3.683516 v 0 0"
       style="fill:none;stroke:#000000;stroke-width:2.2;stroke-linecap:butt;stroke-linejoin:miter;stroke-miterlimit:4;stroke-dasharray:none;stroke-opacity:1" />
    <path
       id="path4308"
       d="m 109.41294,77.049872 c -1.1692,3.683516 -1.1692,3.683516 -1.1692,3.683516"
       style="fill:none;stroke:#000000;stroke-width:2.2;stroke-linecap:round;stroke-linejoin:miter;stroke-miterlimit:4;stroke-dasharray:none;stroke-opacity:1" />
    <path
       style="fill:none;stroke:#000000;stroke-width:2.2;stroke-linecap:round;stroke-linejoin:miter;stroke-opacity:1;stroke-miterlimit:4;stroke-dasharray:none"
       d="m 144.28023,127.07887 c 1.95921,9.0901 1.95921,9.0901 1.95921,9.0901"
       id="path32" />
    <path
       style="fill:#00ffff;stroke:#000000;stroke-width:2.2;stroke-linecap:butt;stroke-linejoin:miter;stroke-opacity:1;stroke-miterlimit:4;stroke-dasharray:none"
       d="m 117.52915,136.47422 c 28.71029,-0.30525 28.71029,-0.30525 28.71029,-0.30525"
       id="path33" />
    <path
       style="fill:#ffffff;stroke-width:8.31496073;stroke-miterlimit:4;stroke-dasharray:none"
       d="m 46.624896,246.02518 c -0.899352,-13.58179 -0.07725,-31.45325 1.958787,-42.58137 1.282524,-7.00975 4.186969,-17.53122 6.406726,-23.20863 l 2.075584,-5.30866 10.901553,11.23686 c 9.610727,9.90633 11.086651,11.23583 12.464772,11.22819 1.79344,-0.01 3.235008,-1.33883 3.235008,-2.98211 0,-0.78817 -3.580536,-4.79311 -11.930613,-13.34476 -6.56184,-6.72024 -12.248795,-12.69751 -12.637682,-13.28282 -1.040235,-1.56567 -2.950879,-9.53064 -4.735801,-19.7423 -4.356114,-24.92165 -7.616676,-32.86172 -17.881047,-43.54365 -2.244054,-2.33534 -3.625529,-4.06637 -3.069946,-3.84673 5.7645,2.27884 9.431629,3.28186 12.020644,3.28783 5.275871,0.0122 7.644775,-2.34627 7.608041,-7.574439 -0.02096,-2.982314 -2.025567,-9.728476 -3.713045,-12.495587 -1.642324,-2.693067 -2.895563,-2.311214 -11.413555,3.477637 -9.195554,6.249324 -9.805385,6.785285 -9.805385,8.617611 0,1.423825 -0.01335,1.430083 -1.279922,0.600192 -1.205977,-0.790186 -1.261892,-1.017001 -0.967847,-3.925983 1.022138,-10.11199 4.657001,-16.151697 11.031403,-18.329839 3.461739,-1.182878 10.020815,-1.13881 12.599065,0.08465 2.052799,0.97412 12.613049,11.84866 21.095983,21.723835 13.189879,15.354643 26.368052,35.254233 33.949551,51.265233 2.97028,6.2728 3.584,7.07107 5.43633,7.07107 1.77821,0 2.98825,-1.19827 2.98825,-2.9592 0,-1.47928 -6.73573,-15.14621 -11.11233,-22.54715 -9.422642,-15.93389 -22.481258,-33.2431 -35.486239,-47.037046 -2.288879,-2.427735 -3.82067,-4.282208 -3.403982,-4.121059 0.416688,0.161155 3.867607,1.707017 7.66871,3.435246 l 6.911094,3.142246 2.242438,3.855025 c 1.233341,2.120265 3.665864,5.786942 5.405609,8.148174 6.499625,8.821474 28.24695,28.789344 31.35493,28.789344 1.77366,0 3.24173,-1.94185 2.79966,-3.70318 -0.17802,-0.70932 -3.4957,-3.9008 -8.26317,-7.94888 C 97.449408,101.93243 90.656142,94.384348 84.629774,84.117451 L 81.953845,79.558572 76.875939,77.206806 C 74.08309,75.913336 59.145991,69.187755 43.682383,62.261079 28.218775,55.334397 15.674729,49.492369 15.806727,49.278793 c 0.131997,-0.213576 1.127193,-0.388321 2.211546,-0.388321 3.037252,0 7.518294,-1.920353 10.039437,-4.302406 2.088087,-1.972889 2.265303,-2.342263 2.467965,-5.144026 0.151295,-2.091636 -0.0187,-3.469876 -0.553614,-4.488452 -1.372299,-2.613114 -5.03527,-5.652138 -9.91014,-8.222056 L 15.2979,24.222051 17.070925,23.88943 c 1.521977,-0.285525 6.87168,1.606758 37.782335,13.364269 l 36.009312,13.69689 11.679778,10.712964 c 6.42388,5.892134 15.13011,13.94057 19.34718,17.885417 7.53716,7.050623 7.69529,7.164457 9.30955,6.701489 1.91016,-0.547826 2.45237,-1.232593 2.46306,-3.110649 0.007,-1.143159 -2.85489,-3.992481 -18.04874,-17.972568 C 105.68234,56.029528 96.761383,47.859911 95.789056,47.012535 94.441244,45.837927 85.560579,42.25601 58.413413,31.937487 38.829135,24.493586 22.729823,18.349494 22.637164,18.283947 c -0.09266,-0.06555 0.27616,-1.124339 0.819599,-2.352874 C 28.79762,3.8571817 49.864121,2.8339586 81.602519,13.10687 c 15.467769,5.006522 13.880627,4.053661 30.905651,18.554583 l 15.18755,12.935871 2.53725,5.555839 c 1.39549,3.055711 2.93176,5.896765 3.41394,6.313453 0.48217,0.416688 1.74507,2.348605 2.80644,4.293149 3.44214,6.306407 11.45741,19.58164 14.66244,24.284531 6.95515,10.205662 7.89969,18.222284 3.4917,29.635134 -2.77581,7.18693 -28.51376,89.1621 -28.51376,90.81611 0,1.84971 1.93075,3.25779 3.81768,2.7842 1.48855,-0.37361 1.80407,-1.05185 4.30192,-9.24751 0.95116,-3.12086 1.84303,-5.6756 1.98193,-5.67721 0.38174,-0.005 5.69219,22.45938 9.549,40.39337 l 3.42151,15.9099 -21.51128,0.31403 c -11.8312,0.17271 -34.829096,0.46973 -51.106436,0.66003 l -29.595171,0.34602 z"
       id="path35"
       transform="matrix(0.26458333,0,0,0.26458333,105.88174,69.886126)" />
  </g>
</svg>
