<?xml version="1.0" encoding="UTF-8" standalone="no"?>
<svg
   xmlns:dc="http://purl.org/dc/elements/1.1/"
   xmlns:cc="http://creativecommons.org/ns#"
   xmlns:rdf="http://www.w3.org/1999/02/22-rdf-syntax-ns#"
   xmlns:svg="http://www.w3.org/2000/svg"
   xmlns="http://www.w3.org/2000/svg"
   xmlns:sodipodi="http://sodipodi.sourceforge.net/DTD/sodipodi-0.dtd"
   xmlns:inkscape="http://www.inkscape.org/namespaces/inkscape"
   sodipodi:docname="hand12.svg"
   inkscape:version="1.0 (4035a4fb49, 2020-05-01)"
   id="svg4149"
   version="1.1"
   viewBox="0 0 43.1871 66.63964"
   height="66.639641mm"
   width="43.187099mm">
  <defs
     id="defs4143" />
  <sodipodi:namedview
     inkscape:window-maximized="1"
     inkscape:window-y="-8"
     inkscape:window-x="-8"
     inkscape:window-height="705"
     inkscape:window-width="1366"
     showgrid="false"
     inkscape:document-rotation="0"
     inkscape:current-layer="layer1"
     inkscape:document-units="mm"
     inkscape:cy="107.13304"
     inkscape:cx="-118.92122"
     inkscape:zoom="1.4"
     inkscape:pageshadow="2"
     inkscape:pageopacity="0.0"
     borderopacity="1.0"
     bordercolor="#666666"
     pagecolor="#ffffff"
     id="base" />
  <metadata
     id="metadata4146">
    <rdf:RDF>
      <cc:Work
         rdf:about="">
        <dc:format>image/svg+xml</dc:format>
        <dc:type
           rdf:resource="http://purl.org/dc/dcmitype/StillImage" />
        <dc:title />
      </cc:Work>
    </rdf:RDF>
  </metadata>
  <g
     transform="translate(-136.32184,-60.618466)"
     id="layer1"
     inkscape:groupmode="layer"
     inkscape:label="Layer 1">
    <path
       style="fill:none;stroke:#000000;stroke-width:2.2;stroke-linecap:butt;stroke-linejoin:miter;stroke-miterlimit:4;stroke-dasharray:none;stroke-opacity:1"
       d="m 167.86153,127.20656 c 1.38012,-13.93203 -3.19205,-21.56233 -3.24885,-21.66016"
       id="path4262"
       sodipodi:nodetypes="cc" />
    <path
       style="fill:none;stroke:#000000;stroke-width:2.2;stroke-linecap:round;stroke-linejoin:miter;stroke-miterlimit:4;stroke-dasharray:none;stroke-opacity:1"
       d="m 158.19907,112.08568 c 6.41361,-6.53928 6.41361,-6.53928 6.41361,-6.53928"
       id="path4264" />
    <path
       style="fill:none;stroke:#000000;stroke-width:2.2;stroke-linecap:round;stroke-linejoin:miter;stroke-miterlimit:4;stroke-dasharray:none;stroke-opacity:1"
       d="m 164.61268,105.5464 c 2.39872,-6.502207 0.48626,-13.992388 8.8943,-19.117519"
       id="path4266"
       sodipodi:nodetypes="cc" />
    <path
       style="fill:none;stroke:#000000;stroke-width:2.2;stroke-linecap:round;stroke-linejoin:miter;stroke-miterlimit:4;stroke-dasharray:none;stroke-opacity:1"
       d="m 173.50698,86.428881 c 0.20462,-9.540853 -7.65917,-6.883221 -7.65919,-6.883228"
       id="path4268"
       sodipodi:nodetypes="cc" />
    <path
       style="fill:none;stroke:#000000;stroke-width:2.2;stroke-linecap:butt;stroke-linejoin:miter;stroke-miterlimit:4;stroke-dasharray:none;stroke-opacity:1"
       d="m 165.84779,79.545653 c -6.96236,6.627784 -12.05196,13.698177 -15.44907,21.168577"
       id="path4270"
       sodipodi:nodetypes="cc" />
    <path
       style="fill:none;stroke:#000000;stroke-width:2.2;stroke-linecap:round;stroke-linejoin:miter;stroke-miterlimit:4;stroke-dasharray:none;stroke-opacity:1"
       d="m 177.29191,73.813434 c -18.89784,8.47998 -18.89784,8.47998 -18.89784,8.47998"
       id="path4272" />
    <path
       style="fill:none;stroke:#000000;stroke-width:2.2;stroke-linecap:round;stroke-linejoin:miter;stroke-miterlimit:4;stroke-dasharray:none;stroke-opacity:1"
       d="m 158.39407,82.293414 c -2.58289,5.03552 -6.20136,7.677306 -9.68096,10.640122"
       id="path4274"
       sodipodi:nodetypes="cc" />
    <path
       style="fill:none;stroke:#000000;stroke-width:2.2;stroke-linecap:butt;stroke-linejoin:miter;stroke-miterlimit:4;stroke-dasharray:none;stroke-opacity:1"
       d="m 177.29191,73.813434 c 4.53692,-6.814589 -2.78508,-7.841415 -2.79256,-7.842305"
       id="path4276"
       sodipodi:nodetypes="cc" />
    <path
       style="fill:none;stroke:#000000;stroke-width:2.2;stroke-linecap:butt;stroke-linejoin:miter;stroke-miterlimit:4;stroke-dasharray:none;stroke-opacity:1"
       d="m 174.49935,65.971125 c -19.47841,7.415451 -19.47841,7.415451 -19.47841,7.415451"
       id="path4278" />
    <path
       style="fill:none;stroke:#000000;stroke-width:2.2;stroke-linecap:round;stroke-linejoin:miter;stroke-miterlimit:4;stroke-dasharray:none;stroke-opacity:1"
       d="m 155.02094,73.386576 c -10.40402,9.523737 -10.20672,9.424894 -10.20672,9.424894"
       id="path4280" />
    <path
       style="fill:none;stroke:#000000;stroke-width:2.2;stroke-linecap:butt;stroke-linejoin:miter;stroke-miterlimit:4;stroke-dasharray:none;stroke-opacity:1"
       d="m 174.49935,65.971125 c -1.49472,-9.642529 -21.22959,-1.071693 -21.22959,-1.071693"
       id="path4282"
       sodipodi:nodetypes="cc" />
    <path
       style="fill:none;stroke:#000000;stroke-width:2.2;stroke-linecap:butt;stroke-linejoin:miter;stroke-miterlimit:4;stroke-dasharray:none;stroke-opacity:1"
       d="M 153.26976,64.899432 Z"
       id="path4284" />
    <path
       style="fill:none;stroke:#000000;stroke-width:2.2;stroke-linecap:round;stroke-linejoin:miter;stroke-miterlimit:4;stroke-dasharray:none;stroke-opacity:1"
       d="m 153.26976,64.899432 c -8.16735,6.924867 -8.16735,6.924867 -8.16735,6.924867"
       id="path4286" />
    <path
       style="fill:none;stroke:#000000;stroke-width:2.2;stroke-linecap:butt;stroke-linejoin:miter;stroke-miterlimit:4;stroke-dasharray:none;stroke-opacity:1"
       d="M 145.10241,71.824299 Z"
       id="path4288" />
    <path
       style="fill:none;stroke:#000000;stroke-width:2.2;stroke-linecap:butt;stroke-linejoin:miter;stroke-miterlimit:4;stroke-dasharray:none;stroke-opacity:1"
       d="m 145.10241,71.824299 c -3.13228,6.026892 -5.80015,10.174126 -5.80092,10.175228"
       id="path4290"
       sodipodi:nodetypes="cc" />
    <path
       style="fill:none;stroke:#000000;stroke-width:2.2;stroke-linecap:butt;stroke-linejoin:miter;stroke-miterlimit:4;stroke-dasharray:none;stroke-opacity:1"
       d="m 145.10241,71.824299 c -1.43668,3.060666 -1.43668,3.060666 -1.43668,3.060666"
       id="path4292" />
    <path
       style="fill:none;stroke:#000000;stroke-width:2.2;stroke-linecap:butt;stroke-linejoin:miter;stroke-miterlimit:4;stroke-dasharray:none;stroke-opacity:1"
       d="m 143.66573,74.884965 c -4.01511,1.439632 -4.89253,4.021267 -4.36424,7.114562"
       id="path4294"
       sodipodi:nodetypes="cc" />
    <path
       style="fill:none;stroke:#000000;stroke-width:2.2;stroke-linecap:butt;stroke-linejoin:miter;stroke-miterlimit:4;stroke-dasharray:none;stroke-opacity:1"
       d="m 139.30149,81.999527 c -3.24922,4.09687 -2.39223,7.290954 -1.03327,10.374676 v 0"
       id="path4296"
       sodipodi:nodetypes="ccc" />
    <path
       style="fill:none;stroke:#000000;stroke-width:2.2;stroke-linecap:round;stroke-linejoin:miter;stroke-miterlimit:4;stroke-dasharray:none;stroke-opacity:1"
       d="m 138.26822,92.374203 7.11754,22.556307 v 0"
       id="path4298" />
    <path
       style="fill:none;stroke:#000000;stroke-width:2.2;stroke-linecap:round;stroke-linejoin:miter;stroke-miterlimit:4;stroke-dasharray:none;stroke-opacity:1"
       d="m 143.37751,108.47957 c -2.32536,9.49183 -2.26706,9.33164 -2.26706,9.33164"
       id="path4300" />
    <path
       style="fill:none;stroke:#000000;stroke-width:2.2;stroke-linecap:butt;stroke-linejoin:miter;stroke-miterlimit:4;stroke-dasharray:none;stroke-opacity:1"
       d="m 171.29142,85.986368 c -5.07018,2.62611 -6.06094,1.321056 -4.10669,-2.822016"
       id="path4302"
       sodipodi:nodetypes="cc" />
    <path
       style="fill:none;stroke:#000000;stroke-width:2.2;stroke-linecap:round;stroke-linejoin:miter;stroke-miterlimit:4;stroke-dasharray:none;stroke-opacity:1"
       d="m 171.29142,85.986368 c -4.10669,-2.822016 -4.10669,-2.822016 -4.10669,-2.822016"
       id="path4304" />
    <path
       style="fill:none;stroke:#000000;stroke-width:2.2;stroke-linecap:round;stroke-linejoin:miter;stroke-miterlimit:4;stroke-dasharray:none;stroke-opacity:1"
       d="m 175.97774,67.782212 c -9.31542,3.663289 1.30613,6.967633 1.1692,3.683516 v 0 0"
       id="path4306"
       sodipodi:nodetypes="cccc" />
    <path
       style="fill:none;stroke:#000000;stroke-width:2.2;stroke-linecap:round;stroke-linejoin:miter;stroke-miterlimit:4;stroke-dasharray:none;stroke-opacity:1"
       d="m 175.97774,67.782212 c 1.1692,3.683516 1.1692,3.683516 1.1692,3.683516"
       id="path4308" />
    <path
       transform="matrix(0.26458333,0,0,0.26458333,136.32184,60.618466)"
       id="path5097"
       d=""
       style="fill:#00ff00;stroke-width:11.4537;stroke-miterlimit:4;stroke-dasharray:none" />
    <path
       transform="matrix(0.26458333,0,0,0.26458333,136.32184,60.618466)"
       id="path5099"
       d=""
       style="fill:#ff00ff;stroke-width:11.4537;stroke-miterlimit:4;stroke-dasharray:none" />
    <path
       transform="matrix(0.26458333,0,0,0.26458333,136.32184,60.618466)"
       id="path5105"
       d=""
       style="fill:#ff00ff;stroke-width:11.4537;stroke-miterlimit:4;stroke-dasharray:none" />
    <path
       style="fill:none;stroke:#000000;stroke-width:2.2;stroke-linecap:round;stroke-linejoin:miter;stroke-opacity:1;stroke-miterlimit:4;stroke-dasharray:none"
       d="m 141.11045,117.81121 c -1.00885,9.14208 -1.00885,9.14208 -1.00885,9.14208"
       id="path35" />
    <path
       id="path36"
       d="m 140.1016,126.95329 c 27.75993,0.25327 27.75993,0.25327 27.75993,0.25327"
       style="fill:#ff0000;stroke:#000000;stroke-width:2.2;stroke-linecap:butt;stroke-linejoin:miter;stroke-opacity:1;stroke-miterlimit:4;stroke-dasharray:none" />
    <path
       transform="matrix(0.26458333,0,0,0.26458333,136.32184,60.618466)"
       id="path38"
       d="m 41.971637,250.16908 -24.107143,-0.1979 0.01212,-1.59764 c 0.0066,-0.87871 0.797745,-8.50836 1.757948,-16.95479 1.630363,-14.34148 6.409314,-37.77157 7.485149,-36.69795 0.213199,0.21276 1.351921,3.14503 2.530492,6.51617 1.178571,3.37113 2.705357,6.47698 3.392857,6.9019 1.677578,1.03685 3.682399,-0.23724 3.959752,-2.51647 0.204568,-1.68107 -24.632019,-81.70861 -28.0320505,-90.32386 -2.655577,-6.72889 -3.486671,-12.50459 -2.4925557,-17.322036 1.0041813,-4.866228 2.4746331,-7.922657 7.4504862,-15.486321 2.06757,-3.142857 6.44117,-10.375 9.719113,-16.071429 3.277943,-5.696428 6.290888,-10.706935 6.695434,-11.134458 0.404547,-0.427525 1.838577,-3.071657 3.186734,-5.87585 2.360013,-4.908874 3.010996,-5.57328 17.5,-17.860811 14.567793,-12.354349 15.265772,-12.843449 21.836766,-15.301816 7.559953,-2.828362 18.831039,-6.172754 27.497751,-8.1592235 7.9756,-1.8280615 25.71971,-1.8600359 30.39654,-0.054774 3.51949,1.3585252 8.03949,5.5171975 9.1196,8.3905645 l 0.67262,1.789345 -35.79516,13.567798 -35.79517,13.567797 -19.299214,17.776032 c -10.614567,9.776817 -19.59558,18.516539 -19.957807,19.421611 -0.819008,2.046392 0.502527,3.873785 2.801453,3.873785 1.111755,0 7.557481,-5.483193 20.805397,-17.698537 L 72.507351,51.021679 108.6413,37.269531 c 22.90172,-8.71612 36.59117,-13.576698 37.3825,-13.273035 0.95777,0.36753 0.20277,1.03787 -3.24176,2.878253 -7.7848,4.159355 -11.23485,8.60567 -10.34752,13.335558 0.7424,3.957327 5.0545,7.246672 11.39558,8.692737 l 3.4656,0.790322 -33.10846,14.868691 -33.10846,14.86869 -3.438043,5.868257 c -4.968841,8.481115 -11.787783,16.105696 -23.638291,26.431086 -5.881548,5.12461 -10.423666,9.61894 -10.423666,10.31399 0,1.7243 1.412588,2.9461 3.406121,2.9461 2.008952,0 18.488142,-13.9262 25.17892,-21.27815 4.346273,-4.775769 12.84353,-16.747919 12.84353,-18.095797 0,-0.708257 13.541658,-7.322486 14.0175,-6.846643 0.138322,0.138321 -2.344078,3.121329 -5.516442,6.6289 -16.049436,17.74529 -29.17787,36.62044 -38.95921,56.01281 l -4.499731,8.92112 2.300371,1.22751 c 1.265203,0.67514 2.628876,1.24099 3.030385,1.25745 0.401507,0.0165 2.429918,-3.38809 4.507578,-7.56569 10.009243,-20.12582 23.243957,-38.83209 41.405658,-58.523764 11.96948,-12.977808 11.41506,-12.547325 16.70042,-12.967137 11.38843,-0.904574 17.89527,5.14463 18.94016,17.608072 0.33913,4.045079 0.21613,4.897065 -0.7611,5.272065 -0.86881,0.333393 -1.16559,0.03079 -1.16559,-1.188407 0,-1.2865 -1.81756,-2.882829 -8.51388,-7.477586 -4.68264,-3.213043 -9.17523,-5.841893 -9.98354,-5.841893 -1.81255,0 -3.19571,2.04065 -5.06419,7.471457 -2.44426,7.104379 -1.71225,11.611493 2.21575,13.642743 2.75398,1.42414 7.90218,0.95291 12.68666,-1.16124 1.71958,-0.75984 3.31667,-1.38153 3.54907,-1.38153 0.2324,0 -1.38557,1.84821 -3.5955,4.10714 -9.87343,10.09234 -13.18918,18.46623 -18.03047,45.53572 -3.09569,17.30922 -2.33863,15.91857 -16.536613,30.3766 -6.842864,6.96819 -12.441571,13.16648 -12.441571,13.77397 0,1.45843 1.939728,3.34943 3.435757,3.34943 0.654971,0 6.218814,-5.0206 12.364107,-11.15688 l 11.17325,-11.15688 2.16732,5.62116 c 6.14893,15.94784 9.38564,38.90885 8.36446,59.33676 l -0.51055,10.21298 -25.104316,-0.16874 c -13.807371,-0.0928 -35.952528,-0.25781 -49.211457,-0.36665 z"
       style="fill:#ffffff;stroke-width:8.31496073;stroke-miterlimit:4;stroke-dasharray:none" />
  </g>
</svg>
