<?xml version="1.0" encoding="UTF-8" standalone="no"?>
<svg
   xmlns:dc="http://purl.org/dc/elements/1.1/"
   xmlns:cc="http://creativecommons.org/ns#"
   xmlns:rdf="http://www.w3.org/1999/02/22-rdf-syntax-ns#"
   xmlns:svg="http://www.w3.org/2000/svg"
   xmlns="http://www.w3.org/2000/svg"
   xmlns:sodipodi="http://sodipodi.sourceforge.net/DTD/sodipodi-0.dtd"
   xmlns:inkscape="http://www.inkscape.org/namespaces/inkscape"
   sodipodi:docname="ventilationduct.svg"
   inkscape:version="1.0 (4035a4fb49, 2020-05-01)"
   id="svg8"
   version="1.1"
   viewBox="0 0 286.24023 144.9929"
   height="144.9929mm"
   width="286.24023mm">
  <defs
     id="defs2" />
  <sodipodi:namedview
     inkscape:document-rotation="0"
     inkscape:window-maximized="1"
     inkscape:window-y="-8"
     inkscape:window-x="-8"
     inkscape:window-height="705"
     inkscape:window-width="1366"
     fit-margin-bottom="0"
     fit-margin-right="0"
     fit-margin-left="0"
     fit-margin-top="0"
     showgrid="false"
     inkscape:current-layer="g232"
     inkscape:document-units="mm"
     inkscape:cy="265.57043"
     inkscape:cx="642.25428"
     inkscape:zoom="0.49497475"
     inkscape:pageshadow="2"
     inkscape:pageopacity="0.0"
     borderopacity="1.0"
     bordercolor="#666666"
     pagecolor="#ffffff"
     id="base"
     showguides="false">
    <sodipodi:guide
       position="114.40989,385.71869"
       orientation="0,-1"
       id="guide357" />
  </sodipodi:namedview>
  <metadata
     id="metadata5">
    <rdf:RDF>
      <cc:Work
         rdf:about="">
        <dc:format>image/svg+xml</dc:format>
        <dc:type
           rdf:resource="http://purl.org/dc/dcmitype/StillImage" />
        <dc:title />
      </cc:Work>
    </rdf:RDF>
  </metadata>
  <g
     transform="translate(99.002214,-449.74344)"
     id="layer1"
     inkscape:groupmode="layer"
     inkscape:label="Layer 1">
    <g
       id="g232">
      <path
         id="path1168-0"
         d="m 136.24802,491.14518 c -0.37947,1.44332 -0.41199,1.43446 -0.41199,1.43446"
         style="fill:none;stroke:#000000;stroke-width:1.36508;stroke-linecap:round;stroke-linejoin:miter;stroke-miterlimit:4;stroke-dasharray:none;stroke-opacity:1" />
      <path
         style="fill:none;stroke:#000000;stroke-width:1.00906;stroke-linecap:round;stroke-linejoin:miter;stroke-miterlimit:4;stroke-dasharray:none;stroke-opacity:1"
         d="m 165.7275,536.77908 c 0.80008,0.13806 1.56624,0.30258 2.29962,0.49119 m 2.54805,0.79912 c 16.20509,6.08219 13.10309,25.82511 6.62997,33.95952 l -98.469493,1.44475"
         id="path826-5-7"
         inkscape:connector-curvature="0"
         sodipodi:nodetypes="ccccc" />
      <path
         style="fill:none;stroke:#000000;stroke-width:1.00906;stroke-linecap:round;stroke-linejoin:miter;stroke-miterlimit:4;stroke-dasharray:none;stroke-opacity:1"
         d="m 75.224405,527.67463 90.503095,9.10445"
         id="path828-3-3"
         inkscape:connector-curvature="0"
         sodipodi:nodetypes="cc" />
      <path
         style="fill:none;stroke:#000000;stroke-width:1.00906;stroke-linecap:round;stroke-linejoin:miter;stroke-miterlimit:4;stroke-dasharray:none;stroke-opacity:1"
         d="m 66.244547,574.15036 c -35.955791,2.64967 -71.5113281,7.485 -110.674354,-7.37947 -19.687517,-10.68166 -30.846039,-24.38239 -36.095502,-36.33269 l -8.048238,-23.04459 c 0.468703,-21.61635 32.131981,-28.26993 43.404866,-17.73825 l 11.842614,17.03659 c 8.547729,8.86415 22.316816,13.42732 38.3737625,16.10591 l 54.5003805,5.29268"
         id="path830-2-8"
         inkscape:connector-curvature="0"
         sodipodi:nodetypes="cccccccc" />
      <path
         style="fill:none;stroke:#000000;stroke-width:1.00906;stroke-linecap:round;stroke-linejoin:miter;stroke-miterlimit:4;stroke-dasharray:none;stroke-opacity:1"
         d="m 64.792728,525.10085 c 8.959685,-2.5046 18.464083,8.53161 19.649207,18.79813 0.292635,2.69528 0.45396,5.17978 0.499024,7.46898 0.645488,32.79278 -22.851363,25.56708 -25.291178,23.65935"
         id="path832-2-9"
         inkscape:connector-curvature="0"
         sodipodi:nodetypes="ccsc" />
      <path
         style="fill:none;stroke:#000000;stroke-width:1.00906;stroke-linecap:round;stroke-linejoin:miter;stroke-miterlimit:4;stroke-dasharray:none;stroke-opacity:1"
         d="m 64.010923,528.01358 3.438837,0.54269 c 3.386719,-0.28927 10.351801,6.85979 12.627245,16.73494 2.479093,10.75902 -3.21766,27.95221 -13.832456,28.85913"
         id="path834-9-9"
         inkscape:connector-curvature="0"
         sodipodi:nodetypes="ccsc" />
      <path
         style="fill:none;stroke:#000000;stroke-width:1.00906;stroke-linecap:round;stroke-linejoin:miter;stroke-miterlimit:4;stroke-dasharray:none;stroke-opacity:1"
         d="m 162.45668,536.59091 c 2.09782,-0.84725 4.07028,-1.28767 5.90769,-1.41131 m 2.89071,0.0666 c 7.4268,0.86235 12.13292,6.9122 13.28819,10.47063 5.25442,6.95929 0.36069,31.31866 -7.33814,26.3121"
         id="path836-9-0"
         inkscape:connector-curvature="0"
         sodipodi:nodetypes="ccccc" />
      <g
         id="g965-1-5"
         transform="matrix(0.96592578,0.26357543,-0.25877602,0.98351345,15.05161,167.23644)"
         style="stroke-linecap:round">
        <g
           id="g936-4-9"
           style="stroke-linecap:round">
          <path
             style="fill:none;stroke:#000000;stroke-width:1;stroke-linecap:round;stroke-linejoin:miter;stroke-miterlimit:4;stroke-dasharray:none;stroke-opacity:1"
             d="m 134.69081,330.80677 0.24669,-8.48238 3.92151,0.14174 -0.0647,9.45303"
             id="path838-5-1"
             inkscape:connector-curvature="0"
             sodipodi:nodetypes="cccc" />
          <path
             style="fill:none;stroke:#000000;stroke-width:1;stroke-linecap:round;stroke-linejoin:miter;stroke-miterlimit:4;stroke-dasharray:none;stroke-opacity:1"
             d="m 136.07143,322.1354 -0.0708,-1.98437 c 0.47962,-1.927 1.94555,-1.622 2.2206,-2e-5 l -0.0472,1.96074"
             id="path842-7-9"
             inkscape:connector-curvature="0"
             sodipodi:nodetypes="cccc" />
          <path
             style="fill:none;stroke:#000000;stroke-width:1;stroke-linecap:round;stroke-linejoin:miter;stroke-miterlimit:4;stroke-dasharray:none;stroke-opacity:1"
             d="m 138.24479,319.5132 2.52772,-0.25986 c 0.89952,0.38909 1.14369,1.08357 0.0945,1.53552 l -2.29148,0.33073"
             id="path844-5-1"
             inkscape:connector-curvature="0"
             sodipodi:nodetypes="cccc" />
          <path
             style="fill:none;stroke:#000000;stroke-width:1;stroke-linecap:round;stroke-linejoin:miter;stroke-miterlimit:4;stroke-dasharray:none;stroke-opacity:1"
             d="m 134.69081,330.80677 c 1.20599,2.87931 2.65081,2.0568 4.1035,1.11239"
             id="path846-0-3"
             inkscape:connector-curvature="0"
             sodipodi:nodetypes="cc" />
        </g>
      </g>
      <path
         style="fill:none;stroke:#000000;stroke-width:1.00906;stroke-linecap:round;stroke-linejoin:miter;stroke-miterlimit:4;stroke-dasharray:none;stroke-opacity:1"
         d="m -84.983215,518.05965 c -2.618659,-5.77041 -8.339379,-7.97879 -7.594636,-17.61135 3.514852,-15.4489 16.628723,-19.71299 20.353667,-20.8423 13.705036,-3.47048 29.498945,-0.80521 33.705857,18.75986"
         id="path848-0-6"
         inkscape:connector-curvature="0"
         sodipodi:nodetypes="cccc" />
      <path
         style="fill:none;stroke:#000000;stroke-width:1.00906;stroke-linecap:round;stroke-linejoin:miter;stroke-miterlimit:4;stroke-dasharray:none;stroke-opacity:1"
         d="m -91.288394,495.91935 c -0.978202,-5.9104 -2.474412,-11.35726 -2.846689,-17.80987 4.801285,-21.46023 31.137827,-15.43009 32.745423,-9.19345 l 7.347208,10.37202"
         id="path850-3-26"
         inkscape:connector-curvature="0"
         sodipodi:nodetypes="cccc" />
      <path
         style="fill:none;stroke:#000000;stroke-width:1.00906;stroke-linecap:round;stroke-linejoin:miter;stroke-miterlimit:4;stroke-dasharray:none;stroke-opacity:1"
         d="m -92.80229,489.03169 c -3.809781,-5.24543 -4.60648,-7.52305 -4.292551,-14.91734 5.656918,-11.87269 14.54785,-13.32678 20.796731,-14.34644 11.395504,-0.62741 19.146823,6.49054 19.739205,16.44283"
         id="path852-1-6"
         inkscape:connector-curvature="0"
         sodipodi:nodetypes="cccc" />
      <path
         style="fill:none;stroke:#000000;stroke-width:1.00906;stroke-linecap:round;stroke-linejoin:miter;stroke-miterlimit:4;stroke-dasharray:none;stroke-opacity:1"
         d="m -96.103741,471.60094 c -0.994973,-2.91173 -2.88315,-15.20636 13.277917,-18.91568 2.951841,0.0162 6.008538,0.0675 9.461364,0.30555 m 1.794402,0.13822 c 3.97978,0.33815 8.505336,0.93766 13.971747,2.00285 l 35.435212,7.55631 c 4.470891,2.11132 2.143226,20.55849 -3.607268,23.17452 l -28.272085,-6.57463"
         id="path854-7-2"
         inkscape:connector-curvature="0"
         sodipodi:nodetypes="cccccccc" />
      <path
         style="fill:none;stroke:#000000;stroke-width:1.00906;stroke-linecap:round;stroke-linejoin:miter;stroke-miterlimit:4;stroke-dasharray:none;stroke-opacity:1"
         d="m -23.415581,462.34472 c 1.316392,-0.36471 1.019361,-1.70077 3.439977,-0.8045 3.376775,3.83564 2.714338,9.95614 1.941456,13.62832 -2.863776,12.51155 -6.323907,13.95429 -8.801198,10.3981"
         id="path856-3-5"
         inkscape:connector-curvature="0"
         sodipodi:nodetypes="cccc" />
      <path
         style="fill:none;stroke:#000000;stroke-width:1;stroke-linecap:round;stroke-linejoin:miter;stroke-miterlimit:4;stroke-dasharray:none;stroke-opacity:1"
         d="m -17.989999,463.59372 55.755737,11.46179 c 1.268809,3.12243 0.865897,5.04552 0.886568,7.19367"
         id="path858-1-0"
         inkscape:connector-curvature="0"
         sodipodi:nodetypes="ccc" />
      <path
         style="fill:none;stroke:#000000;stroke-width:1.00906;stroke-linecap:round;stroke-linejoin:miter;stroke-miterlimit:4;stroke-dasharray:none;stroke-opacity:1"
         d="m 35.933514,474.57395 c 0.236547,-2.05629 4.74049,-2.62436 5.293969,4.32992 l -0.228382,4.02286"
         id="path862-7-8"
         inkscape:connector-curvature="0"
         sodipodi:nodetypes="ccc" />
      <path
         style="fill:none;stroke:#000000;stroke-width:1;stroke-linecap:round;stroke-linejoin:miter;stroke-miterlimit:4;stroke-dasharray:none;stroke-opacity:1"
         d="m 41.096829,475.58195 47.284882,10.05679 c 3.274122,1.64037 4.243768,3.61975 4.753703,5.76436"
         id="path864-8-6"
         inkscape:connector-curvature="0"
         sodipodi:nodetypes="ccc" />
      <path
         style="fill:none;stroke:#000000;stroke-width:1;stroke-linecap:round;stroke-linejoin:miter;stroke-miterlimit:4;stroke-dasharray:none;stroke-opacity:1"
         d="m 89.016707,485.84665 c 0.660231,-0.36852 1.965686,-0.46957 3.208916,0.10619 1.687454,1.22788 2.736672,2.88107 2.738068,5.68651"
         id="path866-7-2"
         inkscape:connector-curvature="0"
         sodipodi:nodetypes="ccc" />
      <path
         sodipodi:nodetypes="cc"
         style="fill:none;stroke:#000000;stroke-width:0.997572;stroke-linecap:round;stroke-linejoin:miter;stroke-miterlimit:4;stroke-dasharray:none;stroke-opacity:1"
         d="m 93.72777,487.02976 34.81157,7.36637"
         id="path868-4-44"
         inkscape:connector-curvature="0" />
      <path
         style="fill:none;stroke:#000000;stroke-width:1.00906;stroke-linecap:round;stroke-linejoin:miter;stroke-miterlimit:4;stroke-dasharray:none;stroke-opacity:1"
         d="m 128.53934,494.39613 10.51013,2.06972 c 3.60171,1.12341 5.81612,8.90008 1.62106,12.76826"
         id="path870-2-8"
         inkscape:connector-curvature="0"
         sodipodi:nodetypes="ccc" />
      <path
         style="fill:none;stroke:#000000;stroke-width:1.00906;stroke-linecap:round;stroke-linejoin:miter;stroke-miterlimit:4;stroke-dasharray:none;stroke-opacity:1"
         d="m 131.38986,495.08009 c 2.06045,-0.74242 5.31092,-3.93054 11.40195,-0.48086 7.46381,6.37791 4.31523,14.2463 2.16834,15.9463"
         id="path872-8-8"
         inkscape:connector-curvature="0"
         sodipodi:nodetypes="ccc" />
      <path
         style="fill:none;stroke:#000000;stroke-width:1.00906;stroke-linecap:round;stroke-linejoin:miter;stroke-miterlimit:4;stroke-dasharray:none;stroke-opacity:1"
         d="m 142.79181,494.59923 6.28578,2.13782 c 4.84791,3.18896 5.89073,11.13943 2.01736,16.25727"
         id="path874-7-2"
         inkscape:connector-curvature="0"
         sodipodi:nodetypes="ccc" />
      <g
         id="g946-8-4"
         transform="matrix(0.62850181,0.17150141,-0.16391105,0.6229662,137.51848,307.68296)"
         style="stroke-linecap:round">
        <path
           style="fill:none;stroke:#000000;stroke-width:1;stroke-linecap:round;stroke-linejoin:miter;stroke-miterlimit:4;stroke-dasharray:none;stroke-opacity:1"
           d="m 134.69081,330.80677 0.24669,-8.48238 3.92151,0.14174 -0.0647,9.45303"
           id="path938-9-8"
           inkscape:connector-curvature="0"
           sodipodi:nodetypes="cccc" />
        <path
           style="fill:none;stroke:#000000;stroke-width:1;stroke-linecap:round;stroke-linejoin:miter;stroke-miterlimit:4;stroke-dasharray:none;stroke-opacity:1"
           d="m 136.07143,322.1354 -0.0708,-1.98437 c 0.47962,-1.927 1.94555,-1.622 2.2206,-2e-5 l -0.0472,1.96074"
           id="path940-5-3"
           inkscape:connector-curvature="0"
           sodipodi:nodetypes="cccc" />
        <path
           style="fill:none;stroke:#000000;stroke-width:1;stroke-linecap:round;stroke-linejoin:miter;stroke-miterlimit:4;stroke-dasharray:none;stroke-opacity:1"
           d="m 138.24479,319.5132 2.52772,-0.25986 c 0.89952,0.38909 1.14369,1.08357 0.0945,1.53552 l -2.29148,0.33073"
           id="path942-8-3"
           inkscape:connector-curvature="0"
           sodipodi:nodetypes="cccc" />
        <path
           style="fill:none;stroke:#000000;stroke-width:1;stroke-linecap:round;stroke-linejoin:miter;stroke-miterlimit:4;stroke-dasharray:none;stroke-opacity:1"
           d="m 134.69081,330.80677 c 1.20599,2.87931 2.65081,2.0568 4.1035,1.11239"
           id="path944-9-3"
           inkscape:connector-curvature="0"
           sodipodi:nodetypes="cc" />
      </g>
      <path
         style="fill:none;stroke:#000000;stroke-width:1.00906;stroke-linecap:round;stroke-linejoin:miter;stroke-miterlimit:4;stroke-dasharray:none;stroke-opacity:1"
         d="m -75.318572,539.04326 -11.01301,40.80476 26.411332,-1.52685 4.25592,-18.27844"
         id="path948-2-2"
         inkscape:connector-curvature="0"
         sodipodi:nodetypes="cccc" />
      <path
         style="fill:none;stroke:#000000;stroke-width:1.00906;stroke-linecap:round;stroke-linejoin:miter;stroke-miterlimit:4;stroke-dasharray:none;stroke-opacity:1"
         d="m -80.525309,530.4382 -8.693989,37.77502 2.887716,11.6348"
         id="path950-8-09"
         inkscape:connector-curvature="0" />
      <path
         style="fill:none;stroke:#000000;stroke-width:1.00906;stroke-linecap:round;stroke-linejoin:miter;stroke-miterlimit:4;stroke-dasharray:none;stroke-opacity:1"
         d="m -90.586525,510.35492 -3.824568,17.88201 1.665451,7.42707 5.083037,-21.9214"
         id="path952-6-1"
         inkscape:connector-curvature="0" />
      <path
         style="fill:none;stroke:#000000;stroke-width:1.00906;stroke-linecap:round;stroke-linejoin:miter;stroke-miterlimit:4;stroke-dasharray:none;stroke-opacity:1"
         d="m -92.745642,535.664 10.437956,0.85608"
         id="path954-7-6"
         inkscape:connector-curvature="0"
         sodipodi:nodetypes="cc" />
      <path
         style="fill:none;stroke:#000000;stroke-width:1.00906;stroke-linecap:round;stroke-linejoin:miter;stroke-miterlimit:4;stroke-dasharray:none;stroke-opacity:1"
         d="m -94.267514,487.53618 -4.207581,17.47868 1.911681,5.00404 4.712858,-17.54002"
         id="path956-3-4"
         inkscape:connector-curvature="0" />
      <path
         style="fill:none;stroke:#000000;stroke-width:1.00906;stroke-linecap:round;stroke-linejoin:miter;stroke-miterlimit:4;stroke-dasharray:none;stroke-opacity:1"
         d="m -96.709803,510.99505 6.00964,-0.44216"
         id="path958-5-2"
         inkscape:connector-curvature="0"
         sodipodi:nodetypes="cc" />
      <g
         id="g977-3-3"
         transform="matrix(0.47229327,0.12887626,-0.16175595,0.61477547,-84.525062,236.39178)"
         style="stroke-linecap:round">
        <g
           id="g975-1-1"
           style="stroke-linecap:round">
          <path
             sodipodi:nodetypes="cccc"
             inkscape:connector-curvature="0"
             id="path967-3-6"
             d="m 134.69081,330.80677 0.24669,-8.48238 3.92151,0.14174 -0.0647,9.45303"
             style="fill:none;stroke:#000000;stroke-width:1;stroke-linecap:round;stroke-linejoin:miter;stroke-miterlimit:4;stroke-dasharray:none;stroke-opacity:1" />
          <path
             sodipodi:nodetypes="cccc"
             inkscape:connector-curvature="0"
             id="path969-6-2"
             d="m 136.07143,322.1354 -0.0708,-1.98437 c 0.47962,-1.927 1.94555,-1.622 2.2206,-2e-5 l -0.0472,1.96074"
             style="fill:none;stroke:#000000;stroke-width:1;stroke-linecap:round;stroke-linejoin:miter;stroke-miterlimit:4;stroke-dasharray:none;stroke-opacity:1" />
          <path
             sodipodi:nodetypes="cccc"
             inkscape:connector-curvature="0"
             id="path971-7-3"
             d="m 138.24479,319.5132 2.52772,-0.25986 c 0.89952,0.38909 1.14369,1.08357 0.0945,1.53552 l -2.29148,0.33073"
             style="fill:none;stroke:#000000;stroke-width:1;stroke-linecap:round;stroke-linejoin:miter;stroke-miterlimit:4;stroke-dasharray:none;stroke-opacity:1" />
          <path
             sodipodi:nodetypes="cc"
             inkscape:connector-curvature="0"
             id="path973-4-55"
             d="m 134.69081,330.80677 c 1.20599,2.87931 2.65081,2.0568 4.1035,1.11239"
             style="fill:none;stroke:#000000;stroke-width:1;stroke-linecap:round;stroke-linejoin:miter;stroke-miterlimit:4;stroke-dasharray:none;stroke-opacity:1" />
        </g>
      </g>
      <g
         transform="matrix(0.31712389,0.08653467,-0.08294827,0.31525613,64.507758,372.61494)"
         id="g989-4-4"
         style="stroke-linecap:round">
        <g
           id="g987-9-714"
           style="stroke-linecap:round">
          <path
             style="fill:none;stroke:#000000;stroke-width:1;stroke-linecap:round;stroke-linejoin:miter;stroke-miterlimit:4;stroke-dasharray:none;stroke-opacity:1"
             d="m 134.69081,330.80677 0.24669,-8.48238 3.92151,0.14174 -0.0647,9.45303"
             id="path979-4-1"
             inkscape:connector-curvature="0"
             sodipodi:nodetypes="cccc" />
          <path
             style="fill:none;stroke:#000000;stroke-width:1;stroke-linecap:round;stroke-linejoin:miter;stroke-miterlimit:4;stroke-dasharray:none;stroke-opacity:1"
             d="m 136.07143,322.1354 -0.0708,-1.98437 c 0.47962,-1.927 1.94555,-1.622 2.2206,-2e-5 l -0.0472,1.96074"
             id="path981-97-9"
             inkscape:connector-curvature="0"
             sodipodi:nodetypes="cccc" />
          <path
             style="fill:none;stroke:#000000;stroke-width:1;stroke-linecap:round;stroke-linejoin:miter;stroke-miterlimit:4;stroke-dasharray:none;stroke-opacity:1"
             d="m 138.24479,319.5132 2.52772,-0.25986 c 0.89952,0.38909 1.14369,1.08357 0.0945,1.53552 l -2.29148,0.33073"
             id="path983-1-6"
             inkscape:connector-curvature="0"
             sodipodi:nodetypes="cccc" />
          <path
             style="fill:none;stroke:#000000;stroke-width:1;stroke-linecap:round;stroke-linejoin:miter;stroke-miterlimit:4;stroke-dasharray:none;stroke-opacity:1"
             d="m 134.69081,330.80677 c 1.20599,2.87931 2.65081,2.0568 4.1035,1.11239"
             id="path985-1-3"
             inkscape:connector-curvature="0"
             sodipodi:nodetypes="cc" />
        </g>
      </g>
      <path
         style="fill:none;stroke:#000000;stroke-width:1.00906;stroke-linecap:round;stroke-linejoin:round;stroke-miterlimit:4;stroke-dasharray:none;stroke-opacity:1"
         d="m 107.1538,573.35052 -5.51841,20.8813 -16.061568,-1.00195 4.957208,-19.81539"
         id="path1037-1-6"
         inkscape:connector-curvature="0"
         sodipodi:nodetypes="cccc" />
      <path
         style="fill:none;stroke:#000000;stroke-width:1.00906;stroke-linecap:round;stroke-linejoin:round;stroke-miterlimit:4;stroke-dasharray:none;stroke-opacity:1"
         d="M 85.573852,593.22987 79.124603,587.244 82.972591,573.66997"
         id="path1039-0-1"
         inkscape:connector-curvature="0"
         sodipodi:nodetypes="ccc" />
      <path
         id="path236-2"
         d="m 128.08719,486.67476 c -1.83711,7.21943 -1.89539,7.20354 -1.89539,7.20354"
         style="fill:none;stroke:#000000;stroke-width:1.11035;stroke-linecap:round;stroke-linejoin:miter;stroke-miterlimit:4;stroke-dasharray:none;stroke-opacity:1" />
      <path
         id="path246-9"
         d="m 145.05646,492.1082 c -0.6036,2.29439 -0.6036,2.29439 -0.6036,2.29439"
         style="fill:none;stroke:#000000;stroke-width:1.33321;stroke-linecap:round;stroke-linejoin:miter;stroke-miterlimit:4;stroke-dasharray:none;stroke-opacity:1" />
      <path
         sodipodi:nodetypes="cc"
         id="path266-3"
         d="m 128.02442,486.53581 8.27806,4.03063"
         style="fill:none;stroke:#000000;stroke-width:1.00915;stroke-linecap:round;stroke-linejoin:miter;stroke-miterlimit:4;stroke-dasharray:none;stroke-opacity:1" />
      <path
         id="path268-3"
         d="m 145.02532,491.85476 c -8.72284,-1.28832 -8.72284,-1.28832 -8.72284,-1.28832"
         style="fill:none;stroke:#000000;stroke-width:1.00915;stroke-linecap:round;stroke-linejoin:miter;stroke-miterlimit:4;stroke-dasharray:none;stroke-opacity:1" />
      <path
         sodipodi:nodetypes="cc"
         style="fill:none;stroke:#000000;stroke-width:1.00915;stroke-linecap:round;stroke-linejoin:miter;stroke-miterlimit:4;stroke-dasharray:none;stroke-opacity:1"
         d="m 136.74727,487.82416 c -2.97134,-0.44686 -5.83141,-0.86334 -8.72285,-1.28835"
         id="path288-5" />
      <path
         style="fill:none;stroke:#000000;stroke-width:1.00915;stroke-linecap:round;stroke-linejoin:miter;stroke-miterlimit:4;stroke-dasharray:none;stroke-opacity:1"
         d="m 136.74727,487.82416 8.27805,4.0306"
         id="path266-0-41"
         sodipodi:nodetypes="cc" />
      <path
         inkscape:connector-curvature="0"
         id="path1905-3-1"
         d="M 157.01109,514.98956 Z"
         style="fill:none;stroke:#000000;stroke-width:0.380942;stroke-linecap:round;stroke-linejoin:miter;stroke-miterlimit:4;stroke-dasharray:none;stroke-opacity:1" />
      <path
         style="fill:none;stroke:#000000;stroke-width:1.09561;stroke-linecap:butt;stroke-linejoin:miter;stroke-miterlimit:4;stroke-dasharray:none;stroke-opacity:1"
         d="m 153.38495,503.42995 4.68613,0.9698 c 1.30422,1.15061 -1.00094,4.70856 -0.89885,4.08284"
         id="path217-4"
         sodipodi:nodetypes="ccc" />
      <path
         style="fill:none;stroke:#000000;stroke-width:0.958543;stroke-linecap:round;stroke-linejoin:miter;stroke-miterlimit:4;stroke-dasharray:none;stroke-opacity:1"
         d="m 153.72456,508.04268 c 3.58484,0.45775 3.58484,0.45775 3.58484,0.45775"
         id="path219-3" />
      <path
         style="fill:none;stroke:#000000;stroke-width:0.264583px;stroke-linecap:butt;stroke-linejoin:miter;stroke-opacity:1"
         d="m 157.3094,508.50043 c 1.9786,2.28843 4.4998,3.61549 6.49833,5.046"
         id="path1311-3"
         sodipodi:nodetypes="cc" />
      <path
         style="fill:none;stroke:#000000;stroke-width:0.264583px;stroke-linecap:butt;stroke-linejoin:miter;stroke-opacity:1"
         d="m 157.45625,504.32357 c 1.67989,0.25275 3.42026,0.92371 5.2199,1.61035 1.29365,0.49363 2.59705,0.9164 4.02807,1.56735 v 0"
         id="path1333-4"
         sodipodi:nodetypes="cscc" />
      <path
         style="fill:none;stroke:#000000;stroke-width:0.264583px;stroke-linecap:butt;stroke-linejoin:miter;stroke-opacity:1"
         d="m 162.86565,512.61224 v 0"
         id="path1337-00" />
      <path
         style="fill:none;stroke:#000000;stroke-width:0.264583px;stroke-linecap:round;stroke-linejoin:miter;stroke-opacity:1"
         d="m 158.26357,504.82901 c 5.10062,1.69377 7.63513,3.13333 7.59722,2.66729"
         id="path1339-0"
         sodipodi:nodetypes="cc" />
      <path
         sodipodi:nodetypes="cc"
         id="path572-7"
         d="m 140.67053,509.2341 c 1.78948,-1.71081 -1.53977,1.95594 -4.67582,4.23266"
         style="fill:none;stroke:#000000;stroke-width:1;stroke-linecap:round;stroke-linejoin:miter;stroke-miterlimit:4;stroke-dasharray:none;stroke-opacity:1" />
      <path
         sodipodi:nodetypes="cc"
         id="path574-3"
         d="m 144.96017,510.54552 c 1.67297,-1.70351 -1.22943,1.25186 -3.80892,3.87845"
         style="fill:none;stroke:#000000;stroke-width:1;stroke-linecap:round;stroke-linejoin:miter;stroke-miterlimit:4;stroke-dasharray:none;stroke-opacity:1" />
      <path
         id="path576-3"
         d="m 151.09495,512.99431 c 0,0 0,0 0,0 z"
         style="fill:none;stroke:#000000;stroke-width:0.264583px;stroke-linecap:butt;stroke-linejoin:miter;stroke-opacity:1" />
      <path
         id="path582-4"
         d="m -22.23383,486.70562 c 56.122209,10.26405 56.824547,9.89697 56.824547,9.89697"
         style="fill:none;stroke:#000000;stroke-width:1.1019;stroke-linecap:round;stroke-linejoin:miter;stroke-miterlimit:4;stroke-dasharray:none;stroke-opacity:1" />
      <path
         sodipodi:nodetypes="cc"
         id="path584-5"
         d="m 38.652306,482.24918 c -0.675586,5.06013 -1.229246,11.49074 -4.02952,14.72812"
         style="fill:none;stroke:#000000;stroke-width:1;stroke-linecap:round;stroke-linejoin:miter;stroke-miterlimit:4;stroke-dasharray:none;stroke-opacity:1" />
      <path
         sodipodi:nodetypes="cc"
         id="path1431-6"
         d="m 34.622796,496.9773 c 0.856444,0.79376 4.892997,3.8848 6.376302,-14.05056"
         style="fill:none;stroke:#000000;stroke-width:1;stroke-linecap:round;stroke-linejoin:miter;stroke-miterlimit:4;stroke-dasharray:none;stroke-opacity:1" />
      <path
         id="path1442-0"
         d="m 37.830719,497.0243 c 49.883378,7.97994 49.883378,7.97994 49.883378,7.97994"
         style="fill:none;stroke:#000000;stroke-width:0.971865;stroke-linecap:butt;stroke-linejoin:miter;stroke-miterlimit:4;stroke-dasharray:none;stroke-opacity:1" />
      <path
         sodipodi:nodetypes="cc"
         id="path1444-4"
         d="m 93.135414,491.4031 c 0.610724,4.42598 -2.608794,11.90772 -5.421317,13.60114"
         style="fill:none;stroke:#000000;stroke-width:1;stroke-linecap:butt;stroke-linejoin:miter;stroke-miterlimit:4;stroke-dasharray:none;stroke-opacity:1" />
      <path
         sodipodi:nodetypes="cc"
         id="path1457-9"
         d="m 90.324601,505.60098 55.599619,10.04851"
         style="fill:none;stroke:#000000;stroke-width:0.98566;stroke-linecap:round;stroke-linejoin:miter;stroke-miterlimit:4;stroke-dasharray:none;stroke-opacity:1" />
      <path
         sodipodi:nodetypes="cc"
         id="path1468-1"
         d="m 94.96369,491.63936 c 0.569348,8.43396 -5.83048,17.41931 -7.249593,13.36488"
         style="fill:none;stroke:#000000;stroke-width:1;stroke-linecap:round;stroke-linejoin:miter;stroke-miterlimit:4;stroke-dasharray:none;stroke-opacity:1" />
      <path
         sodipodi:nodetypes="cc"
         id="path1481-5"
         d="m 151.09495,512.99431 c -1.52327,1.3416 -3.13639,2.4784 -5.17072,2.65518"
         style="fill:none;stroke:#000000;stroke-width:1;stroke-linecap:round;stroke-linejoin:miter;stroke-miterlimit:4;stroke-dasharray:none;stroke-opacity:1" />
      <g
         style="stroke-linecap:round"
         id="g989-4-8-3"
         transform="matrix(0.31712389,0.08653467,-0.08294825,0.3152561,-6.2217786,358.91921)">
        <g
           style="stroke-linecap:round"
           id="g987-9-7-9">
          <path
             sodipodi:nodetypes="cccc"
             inkscape:connector-curvature="0"
             id="path979-4-0-6"
             d="m 134.69081,330.80677 0.24669,-8.48238 3.92151,0.14174 -0.0647,9.45303"
             style="fill:none;stroke:#000000;stroke-width:1;stroke-linecap:round;stroke-linejoin:miter;stroke-miterlimit:4;stroke-dasharray:none;stroke-opacity:1" />
          <path
             sodipodi:nodetypes="cccc"
             inkscape:connector-curvature="0"
             id="path981-97-6-4"
             d="m 136.07143,322.1354 -0.0708,-1.98437 c 0.47962,-1.927 1.94555,-1.622 2.2206,-2e-5 l -0.0472,1.96074"
             style="fill:none;stroke:#000000;stroke-width:1;stroke-linecap:round;stroke-linejoin:miter;stroke-miterlimit:4;stroke-dasharray:none;stroke-opacity:1" />
          <path
             sodipodi:nodetypes="cccc"
             inkscape:connector-curvature="0"
             id="path983-1-1-3"
             d="m 138.24479,319.5132 2.52772,-0.25986 c 0.89952,0.38909 1.14369,1.08357 0.0945,1.53552 l -2.29148,0.33073"
             style="fill:none;stroke:#000000;stroke-width:1;stroke-linecap:round;stroke-linejoin:miter;stroke-miterlimit:4;stroke-dasharray:none;stroke-opacity:1" />
          <path
             sodipodi:nodetypes="cc"
             inkscape:connector-curvature="0"
             id="path985-1-8-0"
             d="m 134.69081,330.80677 c 1.20599,2.87931 2.65081,2.0568 4.1035,1.11239"
             style="fill:none;stroke:#000000;stroke-width:1;stroke-linecap:round;stroke-linejoin:miter;stroke-miterlimit:4;stroke-dasharray:none;stroke-opacity:1" />
        </g>
      </g>
      <path
         d="m 288.59954,449.6345 a 1.3299638,1.6366955 0 0 1 1.32112,-1.61195 1.3299638,1.6366955 0 0 1 1.33813,1.59056 1.3299638,1.6366955 0 0 1 -1.26323,1.68077 1.3299638,1.6366955 0 0 1 -1.39278,-1.51785"
         sodipodi:open="true"
         sodipodi:end="3.0701588"
         sodipodi:start="3.1566898"
         sodipodi:ry="1.6366955"
         sodipodi:rx="1.3299638"
         sodipodi:cy="449.65921"
         sodipodi:cx="289.92935"
         sodipodi:type="arc"
         id="path1857-1-0"
         style="fill:none;fill-opacity:1;stroke:#000000;stroke-width:0.454089;stroke-linecap:round;stroke-linejoin:bevel;stroke-miterlimit:4;stroke-dasharray:none;stroke-dashoffset:0;stroke-opacity:1"
         sodipodi:arc-type="arc"
         transform="matrix(0.96472803,0.2632486,-0.25445347,0.96708502,0,0)" />
      <path
         d="m 287.43908,449.23934 a 2.7082896,3.3118465 0 0 1 2.7251,-3.26178 2.7082896,3.3118465 0 0 1 2.69117,3.30363 2.7082896,3.3118465 0 0 1 -2.67785,3.31978 2.7082896,3.3118465 0 0 1 -2.73818,-3.24534"
         sodipodi:open="true"
         sodipodi:end="3.1215751"
         sodipodi:start="3.1566898"
         sodipodi:ry="3.3118465"
         sodipodi:rx="2.7082896"
         sodipodi:cy="449.28934"
         sodipodi:cx="290.14706"
         sodipodi:type="arc"
         id="path1859-4-4"
         style="fill:none;fill-opacity:1;stroke:#000000;stroke-width:0.454089;stroke-linecap:round;stroke-linejoin:bevel;stroke-miterlimit:4;stroke-dasharray:none;stroke-dashoffset:0;stroke-opacity:1"
         sodipodi:arc-type="arc"
         transform="matrix(0.96472803,0.2632486,-0.25445347,0.96708502,0,0)" />
      <path
         sodipodi:nodetypes="cccc"
         inkscape:connector-curvature="0"
         id="path1861-7-8"
         d="m 164.64125,506.41674 c 0.37321,-1.12086 0.33004,-2.21669 0.91762,-2.63972 1.43316,-0.51664 2.72456,-0.71523 4.13018,-0.87294 1.73588,0.0685 6.81081,2.4496 5.92016,6.87662"
         style="fill:none;stroke:#000000;stroke-width:0.454078;stroke-linecap:round;stroke-linejoin:miter;stroke-miterlimit:4;stroke-dasharray:none;stroke-opacity:1" />
      <path
         sodipodi:nodetypes="cc"
         inkscape:connector-curvature="0"
         id="path1863-6-5"
         d="m 175.60921,509.7807 c -0.22959,2.77571 -1.9172,5.6509 -3.54858,7.05304"
         style="fill:none;stroke:#000000;stroke-width:0.454078;stroke-linecap:round;stroke-linejoin:miter;stroke-miterlimit:4;stroke-dasharray:none;stroke-opacity:1" />
      <path
         sodipodi:nodetypes="cccc"
         inkscape:connector-curvature="0"
         id="path1865-7-6"
         d="m 164.97151,514.13923 -2.95499,1.20039 2.21064,0.72085 1.45688,-0.69067"
         style="fill:none;stroke:#000000;stroke-width:0.454078;stroke-linecap:round;stroke-linejoin:round;stroke-miterlimit:4;stroke-dasharray:none;stroke-opacity:1" />
      <path
         sodipodi:nodetypes="cccc"
         inkscape:connector-curvature="0"
         id="path1867-5-6"
         d="m 162.01652,515.33962 -0.24382,1.02169 2.26282,0.61749 0.19156,-0.91831"
         style="fill:none;stroke:#000000;stroke-width:0.454078;stroke-linecap:round;stroke-linejoin:round;stroke-miterlimit:4;stroke-dasharray:none;stroke-opacity:1" />
      <path
         sodipodi:nodetypes="cc"
         inkscape:connector-curvature="0"
         id="path1869-7-5"
         d="m 164.03556,516.97877 2.00677,-1.07004"
         style="fill:none;stroke:#000000;stroke-width:0.454078;stroke-linecap:round;stroke-linejoin:miter;stroke-miterlimit:4;stroke-dasharray:none;stroke-opacity:1" />
      <path
         sodipodi:nodetypes="cc"
         inkscape:connector-curvature="0"
         id="path1871-7-0"
         d="m 165.55403,514.62847 c -0.12814,2.26202 4.53289,3.57898 6.5066,2.20527"
         style="fill:none;stroke:#000000;stroke-width:0.454078;stroke-linecap:round;stroke-linejoin:miter;stroke-miterlimit:4;stroke-dasharray:none;stroke-opacity:1" />
      <path
         inkscape:connector-curvature="0"
         id="path1873-1-7"
         d="m 169.68905,502.90408 0.75815,-0.41077 -0.77703,-0.18261 0.39768,-1.89146 -1.39079,-0.32067 2.29451,-0.16802 4.3679,1.07431 0.76204,0.6197 -2.17174,-0.29845 -3.84583,-0.87297"
         style="fill:none;stroke:#000000;stroke-width:0.454078;stroke-linecap:round;stroke-linejoin:miter;stroke-miterlimit:4;stroke-dasharray:none;stroke-opacity:1" />
      <path
         inkscape:connector-curvature="0"
         id="path1875-8-3"
         d="m 173.92975,501.32598 v 0"
         style="fill:none;stroke:#000000;stroke-width:0.454078;stroke-linecap:round;stroke-linejoin:miter;stroke-miterlimit:4;stroke-dasharray:none;stroke-opacity:1" />
      <path
         sodipodi:nodetypes="cccc"
         inkscape:connector-curvature="0"
         id="path1877-2-4"
         d="m 175.6349,501.49717 -0.34249,1.96536 -1.70351,-0.0825 -3.1421,-0.88685"
         style="fill:none;stroke:#000000;stroke-width:0.454078;stroke-linecap:round;stroke-linejoin:miter;stroke-miterlimit:4;stroke-dasharray:none;stroke-opacity:1" />
      <path
         sodipodi:nodetypes="cccc"
         inkscape:connector-curvature="0"
         id="path1879-5-1"
         d="m 178.25439,505.03544 2.27563,1.70918 -3.55474,0.20645 c -2.38612,-3.65073 -3.5445,-3.14259 -5.12838,-4.07579"
         style="fill:none;stroke:#000000;stroke-width:0.454078;stroke-linecap:round;stroke-linejoin:round;stroke-miterlimit:4;stroke-dasharray:none;stroke-opacity:1" />
      <path
         sodipodi:nodetypes="ccccccccccc"
         inkscape:connector-curvature="0"
         id="path1881-6-4"
         d="m 176.97528,506.95107 v 0 l -0.84475,4.45622 m 0,0 -1.21737,6.42206 3.73747,-1.18598 0.20439,-1.06186 -0.16664,-0.22193 0.47038,-2.14246 m 0,0 0.79092,-3.60151"
         style="fill:none;stroke:#000000;stroke-width:0.454078;stroke-linecap:round;stroke-linejoin:round;stroke-miterlimit:4;stroke-dasharray:none;stroke-opacity:1" />
      <path
         sodipodi:nodetypes="cc"
         inkscape:connector-curvature="0"
         id="path1883-6-4"
         d="m 180.53002,506.74462 -0.58036,2.87101"
         style="fill:none;stroke:#000000;stroke-width:0.454078;stroke-linecap:round;stroke-linejoin:miter;stroke-miterlimit:4;stroke-dasharray:none;stroke-opacity:1" />
      <path
         sodipodi:nodetypes="cc"
         inkscape:connector-curvature="0"
         id="path1885-8-0"
         d="m 175.44317,502.43618 c 0.2626,-0.0749 0.9666,0.46623 2.81122,2.59926"
         style="fill:none;stroke:#000000;stroke-width:0.454078;stroke-linecap:round;stroke-linejoin:miter;stroke-miterlimit:4;stroke-dasharray:none;stroke-opacity:1" />
      <path
         sodipodi:nodetypes="cc"
         inkscape:connector-curvature="0"
         id="path1887-7-4"
         d="m 166.70422,507.50127 c 1.16181,-2.1266 4.19615,-1.77749 5.64319,0.59871"
         style="fill:none;stroke:#000000;stroke-width:0.454078;stroke-linecap:round;stroke-linejoin:miter;stroke-miterlimit:4;stroke-dasharray:none;stroke-opacity:1" />
      <path
         sodipodi:nodetypes="cc"
         inkscape:connector-curvature="0"
         id="path1889-0-1"
         d="m 172.34741,508.09998 c 2.0083,3.59972 -2.80908,9.52177 -5.41147,5.55266"
         style="fill:none;stroke:#000000;stroke-width:0.454078;stroke-linecap:round;stroke-linejoin:miter;stroke-miterlimit:4;stroke-dasharray:none;stroke-opacity:1" />
      <path
         sodipodi:nodetypes="cc"
         inkscape:connector-curvature="0"
         id="path1891-2-5"
         d="m 169.96903,508.78371 c 1.24664,1.19601 0.43864,4.93663 -2.02052,4.82169"
         style="fill:none;stroke:#000000;stroke-width:0.454078;stroke-linecap:round;stroke-linejoin:miter;stroke-miterlimit:4;stroke-dasharray:none;stroke-opacity:1" />
      <path
         sodipodi:nodetypes="cc"
         inkscape:connector-curvature="0"
         id="path1893-1-0"
         d="m 166.93594,513.65264 c 1.54783,0.80004 3.40091,-2.88703 0.70083,-5.13245"
         style="fill:none;stroke:#000000;stroke-width:0.454078;stroke-linecap:round;stroke-linejoin:miter;stroke-miterlimit:4;stroke-dasharray:none;stroke-opacity:1" />
      <path
         sodipodi:nodetypes="ccccc"
         inkscape:connector-curvature="0"
         id="path1895-4-4"
         d="m 174.90273,516.27926 -4.23689,1.84124 -0.31464,1.078 2.45121,0.81297 7.13505,-3.54829"
         style="fill:none;stroke:#000000;stroke-width:0.454078;stroke-linecap:round;stroke-linejoin:miter;stroke-miterlimit:4;stroke-dasharray:none;stroke-opacity:1" />
      <path
         sodipodi:nodetypes="ccc"
         inkscape:connector-curvature="0"
         id="path1897-7-1"
         d="m 170.66584,518.1205 2.41829,0.76857 -0.28159,1.12243"
         style="fill:none;stroke:#000000;stroke-width:0.454078;stroke-linecap:round;stroke-linejoin:miter;stroke-miterlimit:4;stroke-dasharray:none;stroke-opacity:1" />
      <path
         sodipodi:nodetypes="cc"
         inkscape:connector-curvature="0"
         id="path1899-8-4"
         d="m 173.08413,518.88907 1.82903,-1.05972"
         style="fill:none;stroke:#000000;stroke-width:0.454078;stroke-linecap:round;stroke-linejoin:miter;stroke-miterlimit:4;stroke-dasharray:none;stroke-opacity:1" />
      <path
         sodipodi:nodetypes="ccc"
         inkscape:connector-curvature="0"
         id="path1901-6-1"
         d="m 160.2352,516.51747 12.77269,4.33799 4.61006,-2.40229"
         style="fill:none;stroke:#000000;stroke-width:0.454078;stroke-linecap:round;stroke-linejoin:miter;stroke-miterlimit:4;stroke-dasharray:none;stroke-opacity:1" />
      <path
         inkscape:connector-curvature="0"
         id="path1903-7-5"
         d="m 177.61795,518.45317 3.35755,-1.8082 -2.21039,-0.60314"
         style="fill:none;stroke:#000000;stroke-width:0.454078;stroke-linecap:round;stroke-linejoin:round;stroke-miterlimit:4;stroke-dasharray:none;stroke-opacity:1" />
      <path
         inkscape:connector-curvature="0"
         id="path1905-4-1"
         d="M 160.2352,516.51747 Z"
         style="fill:none;stroke:#000000;stroke-width:0.454078;stroke-linecap:round;stroke-linejoin:miter;stroke-miterlimit:4;stroke-dasharray:none;stroke-opacity:1" />
      <path
         inkscape:connector-curvature="0"
         id="path1907-5-8"
         d="m 160.2352,516.51747 1.67663,-0.72792"
         style="fill:none;stroke:#000000;stroke-width:0.454078;stroke-linecap:round;stroke-linejoin:miter;stroke-miterlimit:4;stroke-dasharray:none;stroke-opacity:1" />
      <path
         id="path1821-8"
         d="m 157.84717,508.50438 c 5.08646,3.87141 5.08646,3.87141 5.08646,3.87141"
         style="fill:none;stroke:#000000;stroke-width:0.264583px;stroke-linecap:butt;stroke-linejoin:miter;stroke-opacity:1" />
      <path
         id="path1834-1"
         d="m 164.50532,507.33956 c -0.12512,0.7096 -0.12512,0.7096 -0.12512,0.7096"
         style="fill:none;stroke:#000000;stroke-width:0.499999;stroke-linecap:round;stroke-linejoin:miter;stroke-miterlimit:4;stroke-dasharray:none;stroke-opacity:1" />
      <path
         sodipodi:nodetypes="cc"
         id="path1836-3"
         d="m 166.70422,507.50127 c 1.17415,0.0718 2.32416,0.2437 3.26481,1.28245"
         style="fill:none;stroke:#000000;stroke-width:0.499999;stroke-linecap:butt;stroke-linejoin:miter;stroke-miterlimit:4;stroke-dasharray:none;stroke-opacity:1" />
      <path
         sodipodi:nodetypes="ccc"
         inkscape:connector-curvature="0"
         id="path1844-1"
         d="m -0.91927909,513.89338 -6.28843901,-6.71421 4.382392,-16.3696"
         style="fill:none;stroke:#000000;stroke-width:1.0826;stroke-linecap:butt;stroke-linejoin:miter;stroke-miterlimit:4;stroke-dasharray:none;stroke-opacity:1" />
      <path
         style="fill:none;stroke:#000000;stroke-width:0.99064;stroke-linecap:round;stroke-linejoin:round;stroke-miterlimit:4;stroke-dasharray:none;stroke-opacity:1;paint-order:markers stroke fill"
         d="m 20.586567,494.62267 -5.427234,20.34512 -16.07859914,-1.07441 4.86503124,-19.27739 c 0.7771088,-2.81525 0.7771088,-2.81525 0.7771088,-2.81525"
         id="path1846-1"
         inkscape:connector-curvature="0"
         sodipodi:nodetypes="cccc" />
      <path
         sodipodi:nodetypes="cccc"
         inkscape:connector-curvature="0"
         id="path1859-40"
         d="m 122.36613,511.82258 -4.73997,16.44944 -16.0188,-1.39544 4.21545,-15.59511"
         style="fill:none;stroke:#000000;stroke-width:0.892278;stroke-linecap:round;stroke-linejoin:miter;stroke-miterlimit:4;stroke-dasharray:none;stroke-opacity:1" />
      <path
         sodipodi:nodetypes="ccc"
         inkscape:connector-curvature="0"
         id="path1861-5"
         d="m 101.60743,526.87617 -6.526065,-5.62004 3.796957,-12.99854"
         style="fill:none;stroke:#000000;stroke-width:0.969576;stroke-linecap:round;stroke-linejoin:miter;stroke-miterlimit:4;stroke-dasharray:none;stroke-opacity:1" />
      <path
         style="fill:none;stroke:#000000;stroke-width:0.892278;stroke-linecap:round;stroke-linejoin:round;stroke-miterlimit:4;stroke-dasharray:none;stroke-opacity:1"
         d="m 122.36613,511.82258 -4.73997,16.44944 -16.0188,-1.39544 4.82865,-17.72598"
         id="path1863-0"
         inkscape:connector-curvature="0"
         sodipodi:nodetypes="cccc" />
      <path
         style="fill:none;stroke:#000000;stroke-width:0.969576;stroke-linecap:round;stroke-linejoin:miter;stroke-miterlimit:4;stroke-dasharray:none;stroke-opacity:1"
         d="m 101.60743,526.87617 -6.526065,-5.62004 4.087113,-14.06688"
         id="path1865-2"
         inkscape:connector-curvature="0"
         sodipodi:nodetypes="ccc" />
      <path
         id="path1869-2"
         d="m 160.2352,516.51746 -1.7086,5.43433"
         style="fill:none;stroke:#000000;stroke-width:0.499999;stroke-linecap:round;stroke-linejoin:miter;stroke-miterlimit:4;stroke-dasharray:none;stroke-opacity:1"
         sodipodi:nodetypes="cc" />
      <path
         id="path1873-9"
         d="m 158.5266,521.95179 13.15008,4.53065"
         style="fill:none;stroke:#000000;stroke-width:0.499999;stroke-linecap:round;stroke-linejoin:miter;stroke-miterlimit:4;stroke-dasharray:none;stroke-opacity:1"
         sodipodi:nodetypes="cc" />
      <path
         style="fill:none;stroke:#000000;stroke-width:0.499999;stroke-linecap:butt;stroke-linejoin:miter;stroke-miterlimit:4;stroke-dasharray:none;stroke-opacity:1"
         d="m 173.00789,520.85546 c -1.33121,5.62698 -1.33121,5.62698 -1.33121,5.62698"
         id="path155" />
      <path
         style="fill:none;stroke:#000000;stroke-width:0.499999;stroke-linecap:butt;stroke-linejoin:miter;stroke-miterlimit:4;stroke-dasharray:none;stroke-opacity:1"
         d="m 180.9755,516.64497 c -1.51355,6.16771 -1.51355,6.16771 -1.51355,6.16771"
         id="path157" />
      <path
         style="fill:none;stroke:#000000;stroke-width:0.499999;stroke-linecap:butt;stroke-linejoin:miter;stroke-miterlimit:4;stroke-dasharray:none;stroke-opacity:1"
         d="m 171.67668,526.48244 c 7.78527,-3.66976 7.78527,-3.66976 7.78527,-3.66976"
         id="path159" />
    </g>
  </g>
</svg>
