<?xml version="1.0" encoding="UTF-8" standalone="no"?>
<svg
   xmlns:dc="http://purl.org/dc/elements/1.1/"
   xmlns:cc="http://creativecommons.org/ns#"
   xmlns:rdf="http://www.w3.org/1999/02/22-rdf-syntax-ns#"
   xmlns:svg="http://www.w3.org/2000/svg"
   xmlns="http://www.w3.org/2000/svg"
   xmlns:sodipodi="http://sodipodi.sourceforge.net/DTD/sodipodi-0.dtd"
   xmlns:inkscape="http://www.inkscape.org/namespaces/inkscape"
   width="299.2247mm"
   height="144.80899mm"
   viewBox="0 0 299.2247 144.809"
   version="1.1"
   id="svg149"
   inkscape:version="1.0 (4035a4fb49, 2020-05-01)"
   sodipodi:docname="ventilationduct1.svg">
  <defs
     id="defs143" />
  <sodipodi:namedview
     id="base"
     pagecolor="#ffffff"
     bordercolor="#666666"
     borderopacity="1.0"
     inkscape:pageopacity="0.0"
     inkscape:pageshadow="2"
     inkscape:zoom="0.49497474"
     inkscape:cx="1029.6399"
     inkscape:cy="132.74934"
     inkscape:document-units="mm"
     inkscape:current-layer="layer1"
     inkscape:document-rotation="0"
     showgrid="false"
     inkscape:window-width="1366"
     inkscape:window-height="705"
     inkscape:window-x="-8"
     inkscape:window-y="-8"
     inkscape:window-maximized="1" />
  <metadata
     id="metadata146">
    <rdf:RDF>
      <cc:Work
         rdf:about="">
        <dc:format>image/svg+xml</dc:format>
        <dc:type
           rdf:resource="http://purl.org/dc/dcmitype/StillImage" />
        <dc:title />
      </cc:Work>
    </rdf:RDF>
  </metadata>
  <g
     inkscape:label="Layer 1"
     inkscape:groupmode="layer"
     id="layer1"
     transform="translate(-103.74794,-312.79439)">
    <path
       sodipodi:nodetypes="ccccc"
       inkscape:connector-curvature="0"
       id="path826-5-3"
       d="m 376.25549,350.06548 c 0.80854,-0.0738 1.59118,-0.1131 2.34839,-0.12072 m 2.66806,0.11242 c 17.2271,1.68075 19.34064,21.55381 15.19343,31.0864 l -94.7403,26.88131"
       style="fill:none;stroke:#000000;stroke-width:1.00906;stroke-linecap:round;stroke-linejoin:miter;stroke-miterlimit:4;stroke-dasharray:none;stroke-opacity:1" />
    <path
       sodipodi:nodetypes="cc"
       inkscape:connector-curvature="0"
       id="path828-3-2"
       d="m 286.47981,364.69518 89.77568,-14.6297"
       style="fill:none;stroke:#000000;stroke-width:1.00906;stroke-linecap:round;stroke-linejoin:miter;stroke-miterlimit:4;stroke-dasharray:none;stroke-opacity:1" />
    <path
       sodipodi:nodetypes="cccccccc"
       inkscape:connector-curvature="0"
       id="path830-2-5"
       d="m 289.83473,411.91145 c -34.04483,11.86542 -67.13737,25.73844 -108.81315,21.51661 -21.7813,-5.22219 -36.10562,-15.56804 -44.26917,-25.75248 l -13.73838,-20.17634 c -5.14199,-21.00109 23.72031,-35.62301 37.33488,-28.36783 l 15.84848,13.39099 c 10.55069,6.3498 25.03164,7.19377 41.23473,5.62525 l 54.01317,-8.9934"
       style="fill:none;stroke:#000000;stroke-width:1.00906;stroke-linecap:round;stroke-linejoin:miter;stroke-miterlimit:4;stroke-dasharray:none;stroke-opacity:1" />
    <path
       sodipodi:nodetypes="ccsc"
       inkscape:connector-curvature="0"
       id="path832-2-4"
       d="m 275.73744,364.90902 c 8.00615,-4.73819 20.04307,3.46204 23.84498,13.072 0.98026,2.52771 1.77913,4.8858 2.41514,7.08533 9.11089,31.50833 -15.45547,30.61027 -18.30591,29.39902"
       style="fill:none;stroke:#000000;stroke-width:1.00906;stroke-linecap:round;stroke-linejoin:miter;stroke-miterlimit:4;stroke-dasharray:none;stroke-opacity:1" />
    <path
       sodipodi:nodetypes="ccsc"
       inkscape:connector-curvature="0"
       id="path834-9-4"
       d="m 275.73614,367.92484 3.46213,-0.36584 c 3.19644,-1.15596 11.77451,3.94681 16.52829,12.89654 5.17926,9.75077 4.12655,27.83255 -5.89183,31.45589"
       style="fill:none;stroke:#000000;stroke-width:1.00906;stroke-linecap:round;stroke-linejoin:miter;stroke-miterlimit:4;stroke-dasharray:none;stroke-opacity:1" />
    <path
       sodipodi:nodetypes="ccccc"
       inkscape:connector-curvature="0"
       id="path836-9-0"
       d="m 373.04742,350.73027 c 1.80705,-1.36133 3.59831,-2.29726 5.34112,-2.89224 m 2.80945,-0.68384 c 7.39693,-1.08923 13.50851,3.53645 15.54541,6.67462 6.87657,5.36221 8.45425,30.15814 -0.27803,27.31478"
       style="fill:none;stroke:#000000;stroke-width:1.00906;stroke-linecap:round;stroke-linejoin:miter;stroke-miterlimit:4;stroke-dasharray:none;stroke-opacity:1" />
    <g
       style="stroke-linecap:round"
       transform="matrix(0.85531841,0.00416213,0.00392414,0.92130658,154.90626,64.046704)"
       id="g965-1-0">
      <g
         style="stroke-linecap:round"
         id="g936-4-6">
        <path
           sodipodi:nodetypes="cccc"
           inkscape:connector-curvature="0"
           id="path838-5"
           d="m 134.69081,330.80677 0.24669,-8.48238 3.92151,0.14174 -0.0647,9.45303"
           style="fill:none;stroke:#000000;stroke-width:1;stroke-linecap:round;stroke-linejoin:miter;stroke-miterlimit:4;stroke-dasharray:none;stroke-opacity:1" />
        <path
           sodipodi:nodetypes="cccc"
           inkscape:connector-curvature="0"
           id="path842-7-4"
           d="m 136.07143,322.1354 -0.0708,-1.98437 c 0.47962,-1.927 1.94555,-1.622 2.2206,-2e-5 l -0.0472,1.96074"
           style="fill:none;stroke:#000000;stroke-width:1;stroke-linecap:round;stroke-linejoin:miter;stroke-miterlimit:4;stroke-dasharray:none;stroke-opacity:1" />
        <path
           sodipodi:nodetypes="cccc"
           inkscape:connector-curvature="0"
           id="path844-5-2"
           d="m 138.24479,319.5132 2.52772,-0.25986 c 0.89952,0.38909 1.14369,1.08357 0.0945,1.53552 l -2.29148,0.33073"
           style="fill:none;stroke:#000000;stroke-width:1;stroke-linecap:round;stroke-linejoin:miter;stroke-miterlimit:4;stroke-dasharray:none;stroke-opacity:1" />
        <path
           sodipodi:nodetypes="cc"
           inkscape:connector-curvature="0"
           id="path846-0-9"
           d="m 134.69081,330.80677 c 1.20599,2.87931 2.65081,2.0568 4.1035,1.11239"
           style="fill:none;stroke:#000000;stroke-width:1;stroke-linecap:round;stroke-linejoin:miter;stroke-miterlimit:4;stroke-dasharray:none;stroke-opacity:1" />
      </g>
    </g>
    <path
       sodipodi:nodetypes="cccc"
       inkscape:connector-curvature="0"
       id="path848-0-1"
       d="m 129.24259,396.8726 c -4.02292,-4.89602 -10.12028,-5.54853 -11.894,-15.04561 -0.60339,-15.83221 10.96001,-23.34513 14.26575,-25.40004 12.33982,-6.89935 28.28539,-8.41266 37.41276,9.39692"
       style="fill:none;stroke:#000000;stroke-width:1.00906;stroke-linecap:round;stroke-linejoin:miter;stroke-miterlimit:4;stroke-dasharray:none;stroke-opacity:1" />
    <path
       sodipodi:nodetypes="cccc"
       inkscape:connector-curvature="0"
       id="path850-3-0"
       d="m 117.42193,377.11862 c -2.4746,-5.45584 -5.32957,-10.32985 -7.35923,-16.46624 -0.91662,-21.97165 26.08324,-22.96338 29.25022,-17.35532 l 9.78133,8.117"
       style="fill:none;stroke:#000000;stroke-width:1.00906;stroke-linecap:round;stroke-linejoin:miter;stroke-miterlimit:4;stroke-dasharray:none;stroke-opacity:1" />
    <path
       sodipodi:nodetypes="cccc"
       inkscape:connector-curvature="0"
       id="path852-1-6"
       d="m 114.17696,370.85747 c -5.03758,-4.08065 -6.39663,-6.07445 -8.00718,-13.29804 2.39129,-12.93227 10.60292,-16.63795 16.37497,-19.2402 10.84483,-3.5554 20.17429,1.31382 23.32233,10.77368"
       style="fill:none;stroke:#000000;stroke-width:1.00906;stroke-linecap:round;stroke-linejoin:miter;stroke-miterlimit:4;stroke-dasharray:none;stroke-opacity:1" />
    <path
       sodipodi:nodetypes="cccccccc"
       inkscape:connector-curvature="0"
       id="path854-7-9"
       d="m 106.4766,354.87514 c -1.71468,-2.555 -6.720607,-13.942 7.92974,-21.70772 2.85545,-0.74834 5.82127,-1.48993 9.21806,-2.15364 m 1.76903,-0.33093 c 3.93169,-0.70341 8.4582,-1.29564 14.01404,-1.68155 l 36.18351,-1.87248 c 4.865,0.88224 7.39112,19.30328 2.51365,23.31851 l -29.01037,0.96675"
       style="fill:none;stroke:#000000;stroke-width:1.00906;stroke-linecap:round;stroke-linejoin:miter;stroke-miterlimit:4;stroke-dasharray:none;stroke-opacity:1" />
    <path
       sodipodi:nodetypes="cccc"
       inkscape:connector-curvature="0"
       id="path856-3-0"
       d="m 174.29228,327.12123 c 1.17714,-0.69298 0.54443,-1.90664 3.11454,-1.66741 4.25445,2.83097 5.19869,8.91437 5.40257,12.66146 0.47204,12.82643 -2.49679,15.11556 -5.81008,12.32171"
       style="fill:none;stroke:#000000;stroke-width:1.00906;stroke-linecap:round;stroke-linejoin:miter;stroke-miterlimit:4;stroke-dasharray:none;stroke-opacity:1" />
    <path
       sodipodi:nodetypes="ccc"
       inkscape:connector-curvature="0"
       id="path858-1"
       d="m 179.85625,326.92344 56.82244,-3.35942 c 2.03372,2.68765 2.14227,4.6495 2.71821,6.7191"
       style="fill:none;stroke:#000000;stroke-width:1;stroke-linecap:round;stroke-linejoin:miter;stroke-miterlimit:4;stroke-dasharray:none;stroke-opacity:1" />
    <path
       sodipodi:nodetypes="ccc"
       inkscape:connector-curvature="0"
       id="path862-7-9"
       d="m 234.78426,323.57309 c -0.30372,-2.04744 3.89973,-3.76186 6.23425,2.81221 l 0.82059,3.94488"
       style="fill:none;stroke:#000000;stroke-width:1.00906;stroke-linecap:round;stroke-linejoin:miter;stroke-miterlimit:4;stroke-dasharray:none;stroke-opacity:1" />
    <path
       sodipodi:nodetypes="ccc"
       inkscape:connector-curvature="0"
       id="path864-8-9"
       d="m 240.03253,323.21038 48.27657,-2.52411 c 3.58712,0.73706 5.03602,2.39803 6.08365,4.3376"
       style="fill:none;stroke:#000000;stroke-width:1;stroke-linecap:round;stroke-linejoin:miter;stroke-miterlimit:4;stroke-dasharray:none;stroke-opacity:1" />
    <path
       sodipodi:nodetypes="ccc"
       inkscape:connector-curvature="0"
       id="path866-7-9"
       d="m 288.97627,320.72275 c 0.54235,-0.52685 1.77718,-0.96234 3.12706,-0.72796 1.94776,0.74929 3.3891,2.07459 4.11654,4.78407"
       style="fill:none;stroke:#000000;stroke-width:1;stroke-linecap:round;stroke-linejoin:miter;stroke-miterlimit:4;stroke-dasharray:none;stroke-opacity:1" />
    <path
       inkscape:connector-curvature="0"
       id="path868-4-8"
       d="m 293.83302,320.64622 35.53196,-1.89453"
       style="fill:none;stroke:#000000;stroke-width:0.997572;stroke-linecap:round;stroke-linejoin:miter;stroke-miterlimit:4;stroke-dasharray:none;stroke-opacity:1"
       sodipodi:nodetypes="cc" />
    <path
       sodipodi:nodetypes="ccc"
       inkscape:connector-curvature="0"
       id="path870-2-7"
       d="m 329.36498,318.75169 10.68768,-0.72102 c 3.76975,0.15294 7.92145,7.09149 4.87049,11.91364"
       style="fill:none;stroke:#000000;stroke-width:1.00906;stroke-linecap:round;stroke-linejoin:miter;stroke-miterlimit:4;stroke-dasharray:none;stroke-opacity:1" />
    <path
       sodipodi:nodetypes="ccc"
       inkscape:connector-curvature="0"
       id="path872-8-5"
       d="m 332.29539,318.67458 c 1.79809,-1.2504 4.11265,-5.17118 10.88898,-3.41551 8.8602,4.2288 7.8554,12.644 6.22167,14.84172"
       style="fill:none;stroke:#000000;stroke-width:1.00906;stroke-linecap:round;stroke-linejoin:miter;stroke-miterlimit:4;stroke-dasharray:none;stroke-opacity:1" />
    <path
       sodipodi:nodetypes="ccc"
       inkscape:connector-curvature="0"
       id="path874-7-3"
       d="m 343.18437,315.25907 6.6249,0.43809 c 5.50809,1.82556 8.57311,9.23523 6.15632,15.18119"
       style="fill:none;stroke:#000000;stroke-width:1.00906;stroke-linecap:round;stroke-linejoin:miter;stroke-miterlimit:4;stroke-dasharray:none;stroke-opacity:1" />
    <g
       style="stroke-linecap:round"
       transform="matrix(0.65147396,0.0029894,0.0029096,0.64416244,289.71324,136.07665)"
       id="g946-8-6">
      <path
         sodipodi:nodetypes="cccc"
         inkscape:connector-curvature="0"
         id="path938-9-2"
         d="m 134.69081,330.80677 0.24669,-8.48238 3.92151,0.14174 -0.0647,9.45303"
         style="fill:none;stroke:#000000;stroke-width:1;stroke-linecap:round;stroke-linejoin:miter;stroke-miterlimit:4;stroke-dasharray:none;stroke-opacity:1" />
      <path
         sodipodi:nodetypes="cccc"
         inkscape:connector-curvature="0"
         id="path940-5-7"
         d="m 136.07143,322.1354 -0.0708,-1.98437 c 0.47962,-1.927 1.94555,-1.622 2.2206,-2e-5 l -0.0472,1.96074"
         style="fill:none;stroke:#000000;stroke-width:1;stroke-linecap:round;stroke-linejoin:miter;stroke-miterlimit:4;stroke-dasharray:none;stroke-opacity:1" />
      <path
         sodipodi:nodetypes="cccc"
         inkscape:connector-curvature="0"
         id="path942-8-8"
         d="m 138.24479,319.5132 2.52772,-0.25986 c 0.89952,0.38909 1.14369,1.08357 0.0945,1.53552 l -2.29148,0.33073"
         style="fill:none;stroke:#000000;stroke-width:1;stroke-linecap:round;stroke-linejoin:miter;stroke-miterlimit:4;stroke-dasharray:none;stroke-opacity:1" />
      <path
         sodipodi:nodetypes="cc"
         inkscape:connector-curvature="0"
         id="path944-9-8"
         d="m 134.69081,330.80677 c 1.20599,2.87931 2.65081,2.0568 4.1035,1.11239"
         style="fill:none;stroke:#000000;stroke-width:1;stroke-linecap:round;stroke-linejoin:miter;stroke-miterlimit:4;stroke-dasharray:none;stroke-opacity:1" />
    </g>
    <path
       sodipodi:nodetypes="cccc"
       inkscape:connector-curvature="0"
       id="path948-2-7"
       d="m 144.00888,414.63982 -0.0767,42.26476 25.11621,-8.31059 -0.61991,-18.75713"
       style="fill:none;stroke:#000000;stroke-width:1.00906;stroke-linecap:round;stroke-linejoin:miter;stroke-miterlimit:4;stroke-dasharray:none;stroke-opacity:1" />
    <path
       inkscape:connector-curvature="0"
       id="path950-8"
       d="m 136.75241,407.67558 1.37914,38.73803 5.80063,10.49097"
       style="fill:none;stroke:#000000;stroke-width:1.00906;stroke-linecap:round;stroke-linejoin:miter;stroke-miterlimit:4;stroke-dasharray:none;stroke-opacity:1" />
    <path
       inkscape:connector-curvature="0"
       id="path952-6-1"
       d="m 121.83608,390.88065 0.93396,18.26257 3.53097,6.74295 -0.76384,-22.49003"
       style="fill:none;stroke:#000000;stroke-width:1.00906;stroke-linecap:round;stroke-linejoin:miter;stroke-miterlimit:4;stroke-dasharray:none;stroke-opacity:1" />
    <path
       sodipodi:nodetypes="cc"
       inkscape:connector-curvature="0"
       id="path954-7"
       d="m 126.30101,415.88617 10.30386,-1.87464"
       style="fill:none;stroke:#000000;stroke-width:1.00906;stroke-linecap:round;stroke-linejoin:miter;stroke-miterlimit:4;stroke-dasharray:none;stroke-opacity:1" />
    <path
       inkscape:connector-curvature="0"
       id="path956-3-6"
       d="m 112.37459,369.79214 0.45961,17.97212 3.14168,4.33875 0.0126,-18.16214"
       style="fill:none;stroke:#000000;stroke-width:1.00906;stroke-linecap:round;stroke-linejoin:miter;stroke-miterlimit:4;stroke-dasharray:none;stroke-opacity:1" />
    <path
       sodipodi:nodetypes="cc"
       inkscape:connector-curvature="0"
       id="path958-5-8"
       d="m 116.08713,393.08379 5.69043,-1.9825"
       style="fill:none;stroke:#000000;stroke-width:1.00906;stroke-linecap:round;stroke-linejoin:miter;stroke-miterlimit:4;stroke-dasharray:none;stroke-opacity:1" />
    <g
       style="stroke-linecap:round"
       transform="matrix(0.4895559,0.00224642,0.00287134,0.63569302,56.784123,124.68375)"
       id="g977-3-4">
      <g
         style="stroke-linecap:round"
         id="g975-1-2">
        <path
           style="fill:none;stroke:#000000;stroke-width:1;stroke-linecap:round;stroke-linejoin:miter;stroke-miterlimit:4;stroke-dasharray:none;stroke-opacity:1"
           d="m 134.69081,330.80677 0.24669,-8.48238 3.92151,0.14174 -0.0647,9.45303"
           id="path967-3-3"
           inkscape:connector-curvature="0"
           sodipodi:nodetypes="cccc" />
        <path
           style="fill:none;stroke:#000000;stroke-width:1;stroke-linecap:round;stroke-linejoin:miter;stroke-miterlimit:4;stroke-dasharray:none;stroke-opacity:1"
           d="m 136.07143,322.1354 -0.0708,-1.98437 c 0.47962,-1.927 1.94555,-1.622 2.2206,-2e-5 l -0.0472,1.96074"
           id="path969-6"
           inkscape:connector-curvature="0"
           sodipodi:nodetypes="cccc" />
        <path
           style="fill:none;stroke:#000000;stroke-width:1;stroke-linecap:round;stroke-linejoin:miter;stroke-miterlimit:4;stroke-dasharray:none;stroke-opacity:1"
           d="m 138.24479,319.5132 2.52772,-0.25986 c 0.89952,0.38909 1.14369,1.08357 0.0945,1.53552 l -2.29148,0.33073"
           id="path971-7-1"
           inkscape:connector-curvature="0"
           sodipodi:nodetypes="cccc" />
        <path
           style="fill:none;stroke:#000000;stroke-width:1;stroke-linecap:round;stroke-linejoin:miter;stroke-miterlimit:4;stroke-dasharray:none;stroke-opacity:1"
           d="m 134.69081,330.80677 c 1.20599,2.87931 2.65081,2.0568 4.1035,1.11239"
           id="path973-4-9"
           inkscape:connector-curvature="0"
           sodipodi:nodetypes="cc" />
      </g>
    </g>
    <g
       style="stroke-linecap:round"
       id="g989-4-0"
       transform="matrix(0.32871497,0.00150837,0.00147242,0.32598262,235.99593,217.69271)">
      <g
         style="stroke-linecap:round"
         id="g987-9-9">
        <path
           sodipodi:nodetypes="cccc"
           inkscape:connector-curvature="0"
           id="path979-4-7"
           d="m 134.69081,330.80677 0.24669,-8.48238 3.92151,0.14174 -0.0647,9.45303"
           style="fill:none;stroke:#000000;stroke-width:1;stroke-linecap:round;stroke-linejoin:miter;stroke-miterlimit:4;stroke-dasharray:none;stroke-opacity:1" />
        <path
           sodipodi:nodetypes="cccc"
           inkscape:connector-curvature="0"
           id="path981-97-7"
           d="m 136.07143,322.1354 -0.0708,-1.98437 c 0.47962,-1.927 1.94555,-1.622 2.2206,-2e-5 l -0.0472,1.96074"
           style="fill:none;stroke:#000000;stroke-width:1;stroke-linecap:round;stroke-linejoin:miter;stroke-miterlimit:4;stroke-dasharray:none;stroke-opacity:1" />
        <path
           sodipodi:nodetypes="cccc"
           inkscape:connector-curvature="0"
           id="path983-1-6"
           d="m 138.24479,319.5132 2.52772,-0.25986 c 0.89952,0.38909 1.14369,1.08357 0.0945,1.53552 l -2.29148,0.33073"
           style="fill:none;stroke:#000000;stroke-width:1;stroke-linecap:round;stroke-linejoin:miter;stroke-miterlimit:4;stroke-dasharray:none;stroke-opacity:1" />
        <path
           sodipodi:nodetypes="cc"
           inkscape:connector-curvature="0"
           id="path985-1-86"
           d="m 134.69081,330.80677 c 1.20599,2.87931 2.65081,2.0568 4.1035,1.11239"
           style="fill:none;stroke:#000000;stroke-width:1;stroke-linecap:round;stroke-linejoin:miter;stroke-miterlimit:4;stroke-dasharray:none;stroke-opacity:1" />
      </g>
    </g>
    <path
       sodipodi:nodetypes="cccc"
       inkscape:connector-curvature="0"
       id="path1037-1-4"
       d="m 329.14303,400.55076 0.0741,21.59806 -15.77361,3.18923 -0.3403,-20.42321"
       style="fill:none;stroke:#000000;stroke-width:1.00906;stroke-linecap:round;stroke-linejoin:round;stroke-miterlimit:4;stroke-dasharray:none;stroke-opacity:1" />
    <path
       sodipodi:nodetypes="ccc"
       inkscape:connector-curvature="0"
       id="path1039-0-9"
       d="m 313.44355,425.33805 -7.77875,-4.11272 0.20365,-14.10743"
       style="fill:none;stroke:#000000;stroke-width:1.00906;stroke-linecap:round;stroke-linejoin:round;stroke-miterlimit:4;stroke-dasharray:none;stroke-opacity:1" />
    <path
       style="fill:none;stroke:#000000;stroke-width:0.380942;stroke-linecap:round;stroke-linejoin:miter;stroke-miterlimit:4;stroke-dasharray:none;stroke-opacity:1"
       d="M 362.19655,331.27439 Z"
       id="path1905-3"
       inkscape:connector-curvature="0" />
    <path
       sodipodi:nodetypes="ccc"
       id="path217"
       d="m 355.70211,321.04718 4.77746,-0.2761 c 1.55758,0.77384 0.25183,4.80718 0.1885,4.17635"
       style="fill:none;stroke:#000000;stroke-width:1.09561;stroke-linecap:butt;stroke-linejoin:miter;stroke-miterlimit:4;stroke-dasharray:none;stroke-opacity:1" />
    <path
       id="path219"
       d="m 357.22402,325.41484 c 3.58116,-0.48567 3.58116,-0.48567 3.58116,-0.48567"
       style="fill:none;stroke:#000000;stroke-width:0.958543;stroke-linecap:round;stroke-linejoin:miter;stroke-miterlimit:4;stroke-dasharray:none;stroke-opacity:1" />
    <path
       sodipodi:nodetypes="cc"
       id="path1311"
       d="m 360.80518,324.92917 c 2.50347,1.69834 5.28223,2.32765 7.5829,3.19217"
       style="fill:none;stroke:#000000;stroke-width:0.264583px;stroke-linecap:butt;stroke-linejoin:miter;stroke-opacity:1" />
    <path
       sodipodi:nodetypes="cscc"
       id="path1333"
       d="m 359.86597,320.85662 c 1.68807,-0.19065 3.5428,0.007 5.45883,0.20447 1.37733,0.14199 2.74574,0.213 4.29648,0.4714 v 0"
       style="fill:none;stroke:#000000;stroke-width:0.264583px;stroke-linecap:butt;stroke-linejoin:miter;stroke-opacity:1" />
    <path
       id="path1337"
       d="m 367.23631,327.4628 v 0"
       style="fill:none;stroke:#000000;stroke-width:0.264583px;stroke-linecap:butt;stroke-linejoin:miter;stroke-opacity:1" />
    <path
       sodipodi:nodetypes="cc"
       id="path1339"
       d="m 360.7766,321.13589 c 5.3652,0.31591 8.18594,1.05044 8.0287,0.61009"
       style="fill:none;stroke:#000000;stroke-width:0.264583px;stroke-linecap:round;stroke-linejoin:miter;stroke-opacity:1" />
    <path
       style="fill:none;stroke:#000000;stroke-width:1;stroke-linecap:round;stroke-linejoin:miter;stroke-miterlimit:4;stroke-dasharray:none;stroke-opacity:1"
       d="m 344.92315,329.9443 c 1.28571,-2.11568 -0.98107,2.2878 -3.421,5.29862"
       id="path572-4"
       sodipodi:nodetypes="cc" />
    <path
       style="fill:none;stroke:#000000;stroke-width:1;stroke-linecap:round;stroke-linejoin:miter;stroke-miterlimit:4;stroke-dasharray:none;stroke-opacity:1"
       d="m 349.40604,330.10078 c 1.17507,-2.07846 -0.86352,1.52741 -2.67531,4.73212"
       id="path574-0"
       sodipodi:nodetypes="cc" />
    <path
       style="fill:none;stroke:#000000;stroke-width:0.264583px;stroke-linecap:butt;stroke-linejoin:miter;stroke-opacity:1"
       d="m 355.96559,330.87834 c 0,0 0,0 0,0 z"
       id="path576-2" />
    <path
       style="fill:none;stroke:#000000;stroke-width:1.1019;stroke-linecap:round;stroke-linejoin:miter;stroke-miterlimit:4;stroke-dasharray:none;stroke-opacity:1"
       d="m 181.73883,350.3462 c 56.86642,-4.61119 57.44982,-5.14754 57.44982,-5.14754"
       id="path582-1" />
    <path
       style="fill:none;stroke:#000000;stroke-width:1;stroke-linecap:round;stroke-linejoin:miter;stroke-miterlimit:4;stroke-dasharray:none;stroke-opacity:1"
       d="m 239.3969,330.28312 c 0.65709,5.06256 1.78667,11.41735 -0.0803,15.26919"
       id="path584-6"
       sodipodi:nodetypes="cc" />
    <path
       style="fill:none;stroke:#000000;stroke-width:1;stroke-linecap:round;stroke-linejoin:miter;stroke-miterlimit:4;stroke-dasharray:none;stroke-opacity:1"
       d="m 239.31662,345.55231 c 1.03269,0.54504 5.73173,2.48602 2.52248,-15.22212"
       id="path1431-6"
       sodipodi:nodetypes="cc" />
    <path
       style="fill:none;stroke:#000000;stroke-width:0.971865;stroke-linecap:butt;stroke-linejoin:miter;stroke-miterlimit:4;stroke-dasharray:none;stroke-opacity:1"
       d="m 242.4274,344.76744 c 50.24899,-5.20275 50.24899,-5.20275 50.24899,-5.20275"
       id="path1442-9" />
    <path
       style="fill:none;stroke:#000000;stroke-width:1;stroke-linecap:butt;stroke-linejoin:miter;stroke-miterlimit:4;stroke-dasharray:none;stroke-opacity:1"
       d="m 294.39275,325.02387 c 1.73545,4.1171 0.56204,12.17718 -1.71636,14.54082"
       id="path1444-9"
       sodipodi:nodetypes="cc" />
    <path
       style="fill:none;stroke:#000000;stroke-width:0.98566;stroke-linecap:round;stroke-linejoin:miter;stroke-miterlimit:4;stroke-dasharray:none;stroke-opacity:1"
       d="m 295.35239,339.46545 56.30587,-4.68412"
       id="path1457-3"
       sodipodi:nodetypes="cc" />
    <path
       style="fill:none;stroke:#000000;stroke-width:1;stroke-linecap:round;stroke-linejoin:miter;stroke-miterlimit:4;stroke-dasharray:none;stroke-opacity:1"
       d="m 296.21987,324.77887 c 2.73282,7.99923 -1.12336,18.33481 -3.54348,14.78582"
       id="path1468-2"
       sodipodi:nodetypes="cc" />
    <path
       style="fill:none;stroke:#000000;stroke-width:1;stroke-linecap:round;stroke-linejoin:miter;stroke-miterlimit:4;stroke-dasharray:none;stroke-opacity:1"
       d="m 355.96559,330.87834 c -1.12414,1.69013 -2.38806,3.2057 -4.30733,3.90298"
       id="path1481-6"
       sodipodi:nodetypes="cc" />
    <g
       transform="matrix(0.32871497,0.00150837,0.00147242,0.32598259,164.13173,222.7698)"
       id="g989-4-8-1"
       style="stroke-linecap:round">
      <g
         id="g987-9-7-5"
         style="stroke-linecap:round">
        <path
           style="fill:none;stroke:#000000;stroke-width:1;stroke-linecap:round;stroke-linejoin:miter;stroke-miterlimit:4;stroke-dasharray:none;stroke-opacity:1"
           d="m 134.69081,330.80677 0.24669,-8.48238 3.92151,0.14174 -0.0647,9.45303"
           id="path979-4-0-8"
           inkscape:connector-curvature="0"
           sodipodi:nodetypes="cccc" />
        <path
           style="fill:none;stroke:#000000;stroke-width:1;stroke-linecap:round;stroke-linejoin:miter;stroke-miterlimit:4;stroke-dasharray:none;stroke-opacity:1"
           d="m 136.07143,322.1354 -0.0708,-1.98437 c 0.47962,-1.927 1.94555,-1.622 2.2206,-2e-5 l -0.0472,1.96074"
           id="path981-97-6-9"
           inkscape:connector-curvature="0"
           sodipodi:nodetypes="cccc" />
        <path
           style="fill:none;stroke:#000000;stroke-width:1;stroke-linecap:round;stroke-linejoin:miter;stroke-miterlimit:4;stroke-dasharray:none;stroke-opacity:1"
           d="m 138.24479,319.5132 2.52772,-0.25986 c 0.89952,0.38909 1.14369,1.08357 0.0945,1.53552 l -2.29148,0.33073"
           id="path983-1-1-3"
           inkscape:connector-curvature="0"
           sodipodi:nodetypes="cccc" />
        <path
           style="fill:none;stroke:#000000;stroke-width:1;stroke-linecap:round;stroke-linejoin:miter;stroke-miterlimit:4;stroke-dasharray:none;stroke-opacity:1"
           d="m 134.69081,330.80677 c 1.20599,2.87931 2.65081,2.0568 4.1035,1.11239"
           id="path985-1-8-1"
           inkscape:connector-curvature="0"
           sodipodi:nodetypes="cc" />
      </g>
    </g>
    <path
       transform="matrix(0.99998947,0.00458864,0.00451684,0.9999898,0,0)"
       sodipodi:arc-type="arc"
       style="fill:none;fill-opacity:1;stroke:#000000;stroke-width:0.454089;stroke-linecap:round;stroke-linejoin:bevel;stroke-miterlimit:4;stroke-dasharray:none;stroke-dashoffset:0;stroke-opacity:1"
       id="path1857-1"
       sodipodi:type="arc"
       sodipodi:cx="367.74518"
       sodipodi:cy="323.77103"
       sodipodi:rx="1.3299638"
       sodipodi:ry="1.6366955"
       sodipodi:start="3.1566898"
       sodipodi:end="3.0701588"
       sodipodi:open="true"
       d="m 366.41537,323.74632 a 1.3299638,1.6366955 0 0 1 1.32112,-1.61195 1.3299638,1.6366955 0 0 1 1.33812,1.59056 1.3299638,1.6366955 0 0 1 -1.26323,1.68076 1.3299638,1.6366955 0 0 1 -1.39277,-1.51785" />
    <path
       transform="matrix(0.99998947,0.00458864,0.00451684,0.9999898,0,0)"
       sodipodi:arc-type="arc"
       style="fill:none;fill-opacity:1;stroke:#000000;stroke-width:0.454089;stroke-linecap:round;stroke-linejoin:bevel;stroke-miterlimit:4;stroke-dasharray:none;stroke-dashoffset:0;stroke-opacity:1"
       id="path1859-4-4"
       sodipodi:type="arc"
       sodipodi:cx="367.96289"
       sodipodi:cy="323.40112"
       sodipodi:rx="2.7082896"
       sodipodi:ry="3.3118465"
       sodipodi:start="3.1566898"
       sodipodi:end="3.1215751"
       sodipodi:open="true"
       d="m 365.25491,323.35113 a 2.7082896,3.3118465 0 0 1 2.72509,-3.26179 2.7082896,3.3118465 0 0 1 2.69117,3.30364 2.7082896,3.3118465 0 0 1 -2.67784,3.31978 2.7082896,3.3118465 0 0 1 -2.73819,-3.24535" />
    <path
       style="fill:none;stroke:#000000;stroke-width:0.454078;stroke-linecap:round;stroke-linejoin:miter;stroke-miterlimit:4;stroke-dasharray:none;stroke-opacity:1"
       d="m 367.3479,321.01885 c 0.0704,-1.17926 -0.25493,-2.22658 0.20315,-2.78728 1.2506,-0.86995 2.4466,-1.39602 3.76351,-1.91215 1.69447,-0.38306 7.21275,0.60336 7.49824,5.11005"
       id="path1861-7-7"
       inkscape:connector-curvature="0"
       sodipodi:nodetypes="cccc" />
    <path
       style="fill:none;stroke:#000000;stroke-width:0.454078;stroke-linecap:round;stroke-linejoin:miter;stroke-miterlimit:4;stroke-dasharray:none;stroke-opacity:1"
       d="m 378.81279,321.42947 c 0.49665,2.74055 -0.3893,5.95456 -1.60221,7.73116"
       id="path1863-6-9"
       inkscape:connector-curvature="0"
       sodipodi:nodetypes="cc" />
    <path
       style="fill:none;stroke:#000000;stroke-width:0.454078;stroke-linecap:round;stroke-linejoin:round;stroke-miterlimit:4;stroke-dasharray:none;stroke-opacity:1"
       d="m 369.66565,328.39272 -2.54363,1.9243 2.32188,0.12414 1.22849,-1.04421"
       id="path1865-7-7"
       inkscape:connector-curvature="0"
       sodipodi:nodetypes="cccc" />
    <path
       style="fill:none;stroke:#000000;stroke-width:0.454078;stroke-linecap:round;stroke-linejoin:round;stroke-miterlimit:4;stroke-dasharray:none;stroke-opacity:1"
       d="m 367.12202,330.31702 0.0289,1.04998 2.34553,0.0108 -0.0526,-0.93661"
       id="path1867-5-7"
       inkscape:connector-curvature="0"
       sodipodi:nodetypes="cccc" />
    <path
       style="fill:none;stroke:#000000;stroke-width:0.454078;stroke-linecap:round;stroke-linejoin:miter;stroke-miterlimit:4;stroke-dasharray:none;stroke-opacity:1"
       d="m 369.4965,331.37775 1.66145,-1.55296"
       id="path1869-7-1"
       inkscape:connector-curvature="0"
       sodipodi:nodetypes="cc" />
    <path
       style="fill:none;stroke:#000000;stroke-width:0.454078;stroke-linecap:round;stroke-linejoin:miter;stroke-miterlimit:4;stroke-dasharray:none;stroke-opacity:1"
       d="m 370.35494,328.71453 c 0.46164,2.21811 5.30474,2.28382 6.85564,0.4461"
       id="path1871-7-6"
       inkscape:connector-curvature="0"
       sodipodi:nodetypes="cc" />
    <path
       style="fill:none;stroke:#000000;stroke-width:0.454078;stroke-linecap:round;stroke-linejoin:miter;stroke-miterlimit:4;stroke-dasharray:none;stroke-opacity:1"
       d="m 371.31456,316.31942 0.626,-0.593 -0.79782,0.0247 -0.10541,-1.92994 -1.4264,0.0502 2.17284,-0.75615 4.49712,-0.0928 0.89646,0.40136 -2.17498,0.27381 -3.94073,0.15214"
       id="path1873-1-6"
       inkscape:connector-curvature="0" />
    <path
       style="fill:none;stroke:#000000;stroke-width:0.454078;stroke-linecap:round;stroke-linejoin:miter;stroke-miterlimit:4;stroke-dasharray:none;stroke-opacity:1"
       d="m 375.00232,313.69752 v 0"
       id="path1875-8-0"
       inkscape:connector-curvature="0" />
    <path
       style="fill:none;stroke:#000000;stroke-width:0.454078;stroke-linecap:round;stroke-linejoin:miter;stroke-miterlimit:4;stroke-dasharray:none;stroke-opacity:1"
       d="m 376.69367,313.42154 0.17788,1.98704 -1.66683,0.36123 -3.26456,-0.0434"
       id="path1877-2-0"
       inkscape:connector-curvature="0"
       sodipodi:nodetypes="cccc" />
    <path
       style="fill:none;stroke:#000000;stroke-width:0.454078;stroke-linecap:round;stroke-linejoin:round;stroke-miterlimit:4;stroke-dasharray:none;stroke-opacity:1"
       d="m 380.13968,316.16128 2.64046,1.06196 -3.38018,1.11946 c -3.24969,-2.90877 -4.23709,-2.11813 -6.00853,-2.60961"
       id="path1879-5"
       inkscape:connector-curvature="0"
       sodipodi:nodetypes="cccc" />
    <path
       style="fill:none;stroke:#000000;stroke-width:0.454078;stroke-linecap:round;stroke-linejoin:round;stroke-miterlimit:4;stroke-dasharray:none;stroke-opacity:1"
       d="m 379.39996,318.3427 v 0 l 0.33737,4.523 m 0,0 0.48628,6.51833 3.30316,-2.1129 -0.0774,-1.07858 -0.21841,-0.17125 -0.10018,-2.1912 m 0,0 -0.16816,-3.6835"
       id="path1881-6-8"
       inkscape:connector-curvature="0"
       sodipodi:nodetypes="ccccccccccc" />
    <path
       style="fill:none;stroke:#000000;stroke-width:0.454078;stroke-linecap:round;stroke-linejoin:miter;stroke-miterlimit:4;stroke-dasharray:none;stroke-opacity:1"
       d="m 382.78014,317.22324 0.18249,2.92339"
       id="path1883-6-3"
       inkscape:connector-curvature="0"
       sodipodi:nodetypes="cc" />
    <path
       style="fill:none;stroke:#000000;stroke-width:0.454078;stroke-linecap:round;stroke-linejoin:miter;stroke-miterlimit:4;stroke-dasharray:none;stroke-opacity:1"
       d="m 376.75151,314.37819 c 0.23426,-0.14031 1.05433,0.20016 3.38817,1.78309"
       id="path1885-8-3"
       inkscape:connector-curvature="0"
       sodipodi:nodetypes="cc" />
    <path
       style="fill:none;stroke:#000000;stroke-width:0.454078;stroke-linecap:round;stroke-linejoin:miter;stroke-miterlimit:4;stroke-dasharray:none;stroke-opacity:1"
       d="m 369.62128,321.53249 c 0.57181,-2.35484 3.59312,-2.80296 5.60586,-0.88226"
       id="path1887-7-8"
       inkscape:connector-curvature="0"
       sodipodi:nodetypes="cc" />
    <path
       style="fill:none;stroke:#000000;stroke-width:0.454078;stroke-linecap:round;stroke-linejoin:miter;stroke-miterlimit:4;stroke-dasharray:none;stroke-opacity:1"
       d="m 375.22714,320.65023 c 2.87154,2.95728 -0.24895,9.92437 -3.78995,6.76406"
       id="path1889-0-1"
       inkscape:connector-curvature="0"
       sodipodi:nodetypes="cc" />
    <path
       style="fill:none;stroke:#000000;stroke-width:0.454078;stroke-linecap:round;stroke-linejoin:miter;stroke-miterlimit:4;stroke-dasharray:none;stroke-opacity:1"
       d="m 373.10676,321.92624 c 1.51371,0.8326 1.70138,4.65489 -0.70373,5.18034"
       id="path1891-2-0"
       inkscape:connector-curvature="0"
       sodipodi:nodetypes="cc" />
    <path
       style="fill:none;stroke:#000000;stroke-width:0.454078;stroke-linecap:round;stroke-linejoin:miter;stroke-miterlimit:4;stroke-dasharray:none;stroke-opacity:1"
       d="m 371.43719,327.41429 c 1.70214,0.37217 2.5378,-3.66888 -0.65143,-5.13896"
       id="path1893-1-0"
       inkscape:connector-curvature="0"
       sodipodi:nodetypes="cc" />
    <path
       style="fill:none;stroke:#000000;stroke-width:0.454078;stroke-linecap:round;stroke-linejoin:miter;stroke-miterlimit:4;stroke-dasharray:none;stroke-opacity:1"
       d="m 379.81234,327.88945 -3.61598,2.87509 -0.0249,1.1227 2.5781,0.15085 5.97355,-5.27407"
       id="path1895-4-6"
       inkscape:connector-curvature="0"
       sodipodi:nodetypes="ccccc" />
    <path
       style="fill:none;stroke:#000000;stroke-width:0.454078;stroke-linecap:round;stroke-linejoin:miter;stroke-miterlimit:4;stroke-dasharray:none;stroke-opacity:1"
       d="m 376.19636,330.76454 2.53481,0.11649 0.0185,1.15706"
       id="path1897-7-4"
       inkscape:connector-curvature="0"
       sodipodi:nodetypes="ccc" />
    <path
       style="fill:none;stroke:#000000;stroke-width:0.454078;stroke-linecap:round;stroke-linejoin:miter;stroke-miterlimit:4;stroke-dasharray:none;stroke-opacity:1"
       d="m 378.73117,330.88103 1.49244,-1.497"
       id="path1899-8-8"
       inkscape:connector-curvature="0"
       sodipodi:nodetypes="cc" />
    <path
       style="fill:none;stroke:#000000;stroke-width:0.454078;stroke-linecap:round;stroke-linejoin:miter;stroke-miterlimit:4;stroke-dasharray:none;stroke-opacity:1"
       d="m 365.70625,331.91578 13.46021,0.88436 3.83122,-3.5136"
       id="path1901-6-8"
       inkscape:connector-curvature="0"
       sodipodi:nodetypes="ccc" />
    <path
       style="fill:none;stroke:#000000;stroke-width:0.454078;stroke-linecap:round;stroke-linejoin:round;stroke-miterlimit:4;stroke-dasharray:none;stroke-opacity:1"
       d="m 382.99768,329.28654 2.77516,-2.61559 -2.29118,-0.0105"
       id="path1903-7-2"
       inkscape:connector-curvature="0" />
    <path
       style="fill:none;stroke:#000000;stroke-width:0.454078;stroke-linecap:round;stroke-linejoin:miter;stroke-miterlimit:4;stroke-dasharray:none;stroke-opacity:1"
       d="M 365.70625,331.91578 Z"
       id="path1905-4-6"
       inkscape:connector-curvature="0" />
    <path
       style="fill:none;stroke:#000000;stroke-width:0.454078;stroke-linecap:round;stroke-linejoin:miter;stroke-miterlimit:4;stroke-dasharray:none;stroke-opacity:1"
       d="m 365.70625,331.91578 1.43111,-1.13707"
       id="path1907-5-5"
       inkscape:connector-curvature="0" />
    <path
       style="fill:none;stroke:#000000;stroke-width:0.264583px;stroke-linecap:butt;stroke-linejoin:miter;stroke-opacity:1"
       d="m 361.32565,324.79379 c 5.91514,2.42302 5.91514,2.42302 5.91514,2.42302"
       id="path1821-8" />
    <path
       style="fill:none;stroke:#000000;stroke-width:0.499999;stroke-linecap:round;stroke-linejoin:miter;stroke-miterlimit:4;stroke-dasharray:none;stroke-opacity:1"
       d="m 367.45544,321.94541 c 0.0628,0.7178 0.0628,0.7178 0.0628,0.7178"
       id="path1834-9" />
    <path
       style="fill:none;stroke:#000000;stroke-width:0.499999;stroke-linecap:butt;stroke-linejoin:miter;stroke-miterlimit:4;stroke-dasharray:none;stroke-opacity:1"
       d="m 369.62128,321.53249 c 1.15273,-0.23451 2.30804,-0.36612 3.48548,0.39376"
       id="path1836-3"
       sodipodi:nodetypes="cc" />
    <path
       style="fill:none;stroke:#000000;stroke-width:1.0826;stroke-linecap:butt;stroke-linejoin:miter;stroke-miterlimit:4;stroke-dasharray:none;stroke-opacity:1"
       d="m 209.36381,371.09095 -7.81193,-4.85785 -0.004,-16.94608"
       id="path1844-1"
       inkscape:connector-curvature="0"
       sodipodi:nodetypes="ccc" />
    <path
       sodipodi:nodetypes="cccc"
       inkscape:connector-curvature="0"
       id="path1846-6"
       d="m 225.14923,346.91075 0.0234,21.05655 -15.80881,3.12365 -0.29009,-19.8797 c 0.022,-2.92045 0.022,-2.92045 0.022,-2.92045"
       style="fill:none;stroke:#000000;stroke-width:0.99064;stroke-linecap:round;stroke-linejoin:round;stroke-miterlimit:4;stroke-dasharray:none;stroke-opacity:1;paint-order:markers stroke fill" />
    <path
       style="fill:none;stroke:#000000;stroke-width:0.892278;stroke-linecap:round;stroke-linejoin:miter;stroke-miterlimit:4;stroke-dasharray:none;stroke-opacity:1"
       d="m 327.91241,337.1821 -0.32104,17.11573 -15.8342,2.79767 0.0355,-16.15476"
       id="path1859-2"
       inkscape:connector-curvature="0"
       sodipodi:nodetypes="cccc" />
    <path
       style="fill:none;stroke:#000000;stroke-width:0.969576;stroke-linecap:round;stroke-linejoin:miter;stroke-miterlimit:4;stroke-dasharray:none;stroke-opacity:1"
       d="m 311.7572,357.0955 -7.75827,-3.73947 0.30331,-13.53836"
       id="path1861-2"
       inkscape:connector-curvature="0"
       sodipodi:nodetypes="ccc" />
    <path
       sodipodi:nodetypes="cccc"
       inkscape:connector-curvature="0"
       id="path1863-1"
       d="m 327.91241,337.1821 -0.32104,17.11573 -15.8342,2.79767 0.0763,-18.37172"
       style="fill:none;stroke:#000000;stroke-width:0.892278;stroke-linecap:round;stroke-linejoin:round;stroke-miterlimit:4;stroke-dasharray:none;stroke-opacity:1" />
    <path
       sodipodi:nodetypes="ccc"
       inkscape:connector-curvature="0"
       id="path1865-2"
       d="m 311.7572,357.0955 -7.75827,-3.73947 0.30707,-14.64539"
       style="fill:none;stroke:#000000;stroke-width:0.969576;stroke-linecap:round;stroke-linejoin:miter;stroke-miterlimit:4;stroke-dasharray:none;stroke-opacity:1" />
    <path
       sodipodi:nodetypes="cc"
       style="fill:none;stroke:#000000;stroke-width:0.499999;stroke-linecap:round;stroke-linejoin:miter;stroke-miterlimit:4;stroke-dasharray:none;stroke-opacity:1"
       d="m 365.70625,331.91577 -0.24388,5.69137"
       id="path1869-5" />
    <path
       sodipodi:nodetypes="cc"
       style="fill:none;stroke:#000000;stroke-width:0.499999;stroke-linecap:round;stroke-linejoin:miter;stroke-miterlimit:4;stroke-dasharray:none;stroke-opacity:1"
       d="m 365.46237,337.60714 13.87462,0.97278"
       id="path1873-15" />
    <path
       id="path155-8"
       d="m 379.16646,332.80014 c 0.17053,5.77978 0.17053,5.77978 0.17053,5.77978"
       style="fill:none;stroke:#000000;stroke-width:0.499999;stroke-linecap:butt;stroke-linejoin:miter;stroke-miterlimit:4;stroke-dasharray:none;stroke-opacity:1" />
    <path
       id="path157-7"
       d="m 385.77284,326.67095 c 0.13433,6.34929 0.13433,6.34929 0.13433,6.34929"
       style="fill:none;stroke:#000000;stroke-width:0.499999;stroke-linecap:butt;stroke-linejoin:miter;stroke-miterlimit:4;stroke-dasharray:none;stroke-opacity:1" />
    <path
       id="path159-1"
       d="m 379.33699,338.57992 c 6.57018,-5.55968 6.57018,-5.55968 6.57018,-5.55968"
       style="fill:none;stroke:#000000;stroke-width:0.499999;stroke-linecap:butt;stroke-linejoin:miter;stroke-miterlimit:4;stroke-dasharray:none;stroke-opacity:1" />
    <g
       id="g965-1-5"
       transform="matrix(0.7825083,0.00375932,0.0035901,0.83214266,53.500033,92.394654)"
       style="fill:#ffffff;stroke-linecap:round">
      <g
         id="g936-4-1"
         style="fill:#ffffff;stroke-linecap:round">
        <path
           style="fill:#ffffff;stroke:#000000;stroke-width:1;stroke-linecap:round;stroke-linejoin:miter;stroke-miterlimit:4;stroke-dasharray:none;stroke-opacity:1"
           d="m 134.69081,330.80677 0.24669,-8.48238 3.92151,0.14174 -0.0647,9.45303"
           id="path838-5-1"
           inkscape:connector-curvature="0"
           sodipodi:nodetypes="cccc" />
        <path
           style="fill:#ffffff;stroke:#000000;stroke-width:1;stroke-linecap:round;stroke-linejoin:miter;stroke-miterlimit:4;stroke-dasharray:none;stroke-opacity:1"
           d="m 136.07143,322.1354 -0.0708,-1.98437 c 0.47962,-1.927 1.94555,-1.622 2.2206,-2e-5 l -0.0472,1.96074"
           id="path842-7-1"
           inkscape:connector-curvature="0"
           sodipodi:nodetypes="cccc" />
        <path
           style="fill:#ffffff;stroke:#000000;stroke-width:1;stroke-linecap:round;stroke-linejoin:miter;stroke-miterlimit:4;stroke-dasharray:none;stroke-opacity:1"
           d="m 138.24479,319.5132 2.52772,-0.25986 c 0.89952,0.38909 1.14369,1.08357 0.0945,1.53552 l -2.29148,0.33073"
           id="path844-5-5"
           inkscape:connector-curvature="0"
           sodipodi:nodetypes="cccc" />
        <path
           style="fill:#ffffff;stroke:#000000;stroke-width:1;stroke-linecap:round;stroke-linejoin:miter;stroke-miterlimit:4;stroke-dasharray:none;stroke-opacity:1"
           d="m 134.69081,330.80677 c 1.20599,2.87931 2.65081,2.0568 4.1035,1.11239"
           id="path846-0-4"
           inkscape:connector-curvature="0"
           sodipodi:nodetypes="cc" />
      </g>
    </g>
  </g>
</svg>
